<?xml version="1.0" standalone="no"?>
<!DOCTYPE svg PUBLIC "-//W3C//DTD SVG 1.1//EN" "http://www.w3.org/Graphics/SVG/1.1/DTD/svg11.dtd" >
<svg xmlns="http://www.w3.org/2000/svg">
<metadata></metadata>
<defs>
<font id="adobe_garamond_proitalic" horiz-adv-x="1024" >
<font-face units-per-em="2048" ascent="1485" descent="-563" />
<missing-glyph horiz-adv-x="512" />
<glyph unicode="&#xfb03;" horiz-adv-x="1527" d="M-297 -446q0 12 2 22t4.5 16t8 12.5t8 9t8.5 7.5t8 6q14 12 25 12t18 -7t16 -23q21 -34 56 -55t67 -21q76 0 129 170q55 180 140 526t131 502h-168q-15 13 -12.5 38t22.5 38h180q87 300 205 440q139 168 326 168q81 0 133.5 -34.5t46.5 -98.5l4 -4q164 186 366 186 q99 0 161.5 -44.5t62.5 -116.5q0 -42 -31.5 -65.5t-65.5 -23.5q-59 0 -59 52q0 137 -104 137q-103 0 -197 -117q-44 -56 -85 -146.5t-62 -153t-58 -179.5h195q78 0 172 14.5t100 14.5q21 0 28.5 -15.5t4 -39.5t-15.5 -54l-234 -584q-7 -15 -6 -30t12 -15q27 0 94.5 47 t118.5 105q31 -3 31 -35q-12 -23 -53.5 -63t-96 -81t-119.5 -70.5t-114 -29.5q-17 0 -33 19q-18 21 -6 55l242 623q15 37 4.5 50t-64.5 13h-280q-19 -66 -98 -345t-126 -431q-84 -273 -163 -352q-20 -20 -45 -39.5t-79.5 -42.5t-109.5 -23q-63 0 -98 35.5t-35 69.5 q0 12 2 22t4.5 16t8 12.5t8 9t8.5 7.5t8 6q14 12 25 12t18 -7t16 -23q21 -34 56 -55t67 -21q79 0 131 187q47 165 130.5 495.5t123.5 466.5h-350q-7 -20 -24 -81.5t-23 -80.5q-22 -77 -87.5 -314.5t-105.5 -365.5q-39 -130 -82.5 -216.5t-78.5 -118.5q-20 -20 -45 -39.5 t-79.5 -42.5t-109.5 -23q-63 0 -98 35.5t-35 69.5zM489 807h353q71 236 157 389q-6 70 -50 114t-99 44q-119 0 -205 -148q-79 -137 -156 -399z" />
<glyph unicode="&#xfb04;" horiz-adv-x="1499" d="M-297 -446q0 12 2 22t4.5 16t8 12.5t8 9t8.5 7.5t8 6q14 12 25 12t18 -7t16 -23q21 -34 56 -55t67 -21q76 0 129 170q55 180 140 526t131 502h-168q-15 13 -12.5 38t22.5 38h180q87 300 205 440q139 168 326 168q81 0 133.5 -34.5t46.5 -98.5l4 -4q157 186 338 186 q98 0 166 -65q76 50 121 65l14 -12q-32 -82 -125 -352l-328 -967q-8 -24 -10 -38.5t3 -21.5t17 -7q53 0 236 206q33 3 33 -28q-23 -43 -55 -86.5t-77 -87.5t-103.5 -71.5t-119.5 -27.5q-77 0 -77 62q0 40 45 174l178 524h-348q-19 -66 -98 -345t-126 -431 q-84 -273 -163 -352q-20 -20 -45 -39.5t-79.5 -42.5t-109.5 -23q-63 0 -98 35.5t-35 69.5q0 12 2 22t4.5 16t8 12.5t8 9t8.5 7.5t8 6q14 12 25 12t18 -7t16 -23q21 -34 56 -55t67 -21q79 0 131 187q47 165 130.5 495.5t123.5 466.5h-350q-7 -20 -24 -81.5t-23 -80.5 q-22 -77 -87.5 -314.5t-105.5 -365.5q-39 -130 -82.5 -216.5t-78.5 -118.5q-20 -20 -45 -39.5t-79.5 -42.5t-109.5 -23q-63 0 -98 35.5t-35 69.5zM489 807h353q71 236 157 389q-6 70 -50 114t-99 44q-119 0 -205 -148q-79 -137 -156 -399zM989 807h352l146 424 q25 71 -10.5 121.5t-102.5 50.5q-46 0 -94.5 -28.5t-87.5 -76.5q-99 -126 -203 -491z" />
<glyph horiz-adv-x="2048" />
<glyph horiz-adv-x="2048" />
<glyph unicode="&#xd;" horiz-adv-x="2048" />
<glyph unicode=" "  horiz-adv-x="512" />
<glyph unicode="&#x09;" horiz-adv-x="512" />
<glyph unicode="&#xa0;" horiz-adv-x="512" />
<glyph unicode="!" horiz-adv-x="421" d="M57 68q0 54 35.5 90.5t81.5 36.5q42 0 66 -27.5t24 -65.5q0 -59 -35 -95t-82 -36q-42 0 -66 26t-24 71zM223 420l142 661q30 141 41 179q12 40 33 51.5t75 11.5q57 0 75.5 -17t8.5 -49q-4 -11 -11 -29.5t-24 -60t-33 -82.5l-254 -665q-6 -12 -25 -12t-28 12z" />
<glyph unicode="&#x22;" horiz-adv-x="778" d="M422 946l37 330q9 88 25 108.5t81 20.5q26 0 40.5 -4t21.5 -12t5 -25t-8 -36t-20 -52l-135 -330q-5 -12 -23 -12t-24 12zM745 946l37 330q9 88 25 108.5t82 20.5q26 0 40.5 -4t21.5 -12t5 -25t-8 -36t-20 -52l-135 -330q-5 -12 -23.5 -12t-24.5 12z" />
<glyph unicode="#" d="M104 397l43 99h218l135 331h-224l48 99h217l143 352h96l-145 -352h231l142 352h98l-145 -352h204l-41 -99h-204l-140 -331h201l-43 -99h-195l-161 -391h-88l157 391h-233l-162 -391h-86l158 391h-224zM455 496h233l137 331h-231z" />
<glyph unicode="$" d="M78.5 226q2.5 73 21.5 155q6 7 21.5 7.5t25.5 -5.5q0 -42 14 -87.5t42.5 -92.5t81.5 -83.5t121 -49.5l165 565q-221 125 -221 305q0 164 120 263.5t298 105.5l47 159q13 10 39 10t39 -10l-47 -161q129 -12 248 -70q7 -83 -33 -221q-4 -8 -22.5 -9.5t-24.5 3.5 q3 31 -4.5 65t-26.5 70t-60 63.5t-98 36.5l-143 -495q59 -37 98 -67t78 -72.5t58.5 -95.5t19.5 -116q0 -127 -67.5 -219.5t-173 -136t-232.5 -43.5l-57 -193q-12 -12 -40.5 -12t-37.5 12l57 197q-107 11 -182.5 45.5t-112.5 69.5q-14 34 -11.5 107zM483 61q136 3 219.5 76.5 t83.5 190.5q0 97 -37.5 157t-111.5 107zM487 1001q0 -127 129 -210l134 456q-106 -5 -184.5 -73t-78.5 -173z" />
<glyph unicode="%" horiz-adv-x="1767" d="M274 788q0 126 53.5 245.5t152 198.5t214.5 79q112 0 172 -75t60 -202q0 -121 -56 -241t-151 -198.5t-199 -78.5q-121 0 -183.5 73t-62.5 199zM381 -29q600 713 1141 1368q21 0 40 -14t19 -37q-567 -672 -1145 -1370q-27 0 -41 14.5t-14 38.5zM410 731q0 -153 104 -153 q64 0 119.5 62.5t88 151t51 173t18.5 139.5q0 66 -27 105.5t-74 39.5q-62 0 -118 -61.5t-89.5 -148t-53 -170t-19.5 -138.5zM1063 248q0 126 53.5 245.5t152 198t214.5 78.5q112 0 171.5 -74.5t59.5 -201.5q0 -121 -55.5 -241.5t-150.5 -199t-199 -78.5q-121 0 -183.5 73.5 t-62.5 199.5zM1198 190q0 -75 27.5 -114t77.5 -39q52 0 98.5 41.5t78 104.5t54.5 136.5t34 137t11 106.5q0 67 -26.5 106.5t-73.5 39.5q-62 0 -118 -61.5t-90 -148t-53.5 -170.5t-19.5 -139z" />
<glyph unicode="&#x26;" horiz-adv-x="1576" d="M162 381q0 98 43 212.5t153 227.5q47 49 96.5 83t90.5 49.5t69.5 21.5t49.5 6q22 0 40 -4.5t29 -9.5t23 -16.5t15.5 -16t12.5 -18.5t9 -15q68 56 156.5 146t131.5 147q26 33 50 84.5t24 87.5t-25 61q-13 13 -17.5 21.5t-4.5 24.5q0 39 25 61t57 22q40 0 67 -26t27 -82 q0 -83 -60 -184t-198 -236q-119 -117 -333.5 -284t-393.5 -289v-17q0 -93 34 -164t89 -110t116 -57.5t124 -18.5q134 0 272.5 88t224.5 246q58 107 82 197t29 217q-39 34 -107 34q-50 0 -99.5 -40.5t-49.5 -90.5q0 -6 16 -67q14 -54 14 -58q0 -10 -4 -21.5t-20.5 -23.5 t-42.5 -12q-35 0 -61.5 21.5t-26.5 60.5q0 46 34.5 108.5t104.5 120.5q54 45 112 64.5t91 19.5q28 0 54.5 -7t42.5 -12.5t45.5 -28t38 -29t46 -41t45.5 -41.5q6 -6 17.5 -16.5t15 -13.5t11 -9t10.5 -7.5t9.5 -4t12.5 -3t14 -0.5q15 0 28 19t13 45q0 27 -8 51q-8 28 -8 31 q0 19 19 35t46 16q38 0 57 -34.5t19 -80.5q0 -57 -39 -96q-11 -13 -53 -20q-28 -3 -78 -19.5t-76 -32.5q-30 -18 -49 13q-10 16 -54.5 63.5t-86.5 81.5q0 -96 -8 -174q-4 -42 -20.5 -102t-66.5 -159.5t-122 -180.5q-100 -113 -235.5 -168.5t-256.5 -55.5q-117 0 -206.5 34 t-141.5 92.5t-78 130t-26 153.5zM303 532q224 154 334 250q2 18 2 49q0 29 -19 46.5t-49 17.5q-26 0 -70.5 -28.5t-86.5 -82.5q-89 -119 -111 -252z" />
<glyph unicode="'" horiz-adv-x="425" d="M412 946l37 330q9 88 25 108.5t81 20.5q26 0 40.5 -4t21.5 -12t5 -25t-8 -36t-20 -52l-135 -330q-5 -12 -23 -12t-24 12z" />
<glyph unicode="(" horiz-adv-x="655" d="M184 305q0 249 105.5 475.5t296.5 417.5q141 141 332 242q11 0 18.5 -9t7.5 -20q-96 -66 -189.5 -153.5t-160.5 -180.5q-299 -418 -299 -790q0 -380 131 -598q0 -12 -9.5 -18.5t-23.5 -4.5q-114 118 -161.5 273.5t-47.5 365.5z" />
<glyph unicode=")" horiz-adv-x="655" d="M-137 -305q96 66 189.5 153.5t160.5 180.5q299 418 299 790q0 380 -131 598q0 12 9.5 18.5t23.5 4.5q114 -118 161.5 -273.5t47.5 -365.5q0 -249 -105.5 -475.5t-296.5 -417.5q-141 -141 -332 -242q-11 0 -18.5 9t-7.5 20z" />
<glyph unicode="*" horiz-adv-x="819" d="M283 927.5q-4 16.5 4 28.5l262 107l-193 213q-2 14 9.5 25t25.5 10l219 -183l82 254q10 5 25 2t24 -12l-41 -264l279 68q13 -4 17.5 -20t-3.5 -28l-266 -106l191 -211q2 -14 -8.5 -27t-24.5 -12l-217 189l-80 -256q-10 -5 -26 -2t-23 14l39 264l-279 -74q-12 4 -16 20.5z " />
<glyph unicode="+" horiz-adv-x="1146" d="M242 371v100h333v336h121v-336h334v-100h-334v-371h-121v371h-333z" />
<glyph unicode="," horiz-adv-x="512" d="M3.5 -199.5q-4.5 13.5 0.5 23.5q189 86 189 213q0 30 -18 51.5t-50 28.5q-13 3 -22 15.5t-9 29.5q0 33 26 55.5t62 22.5q68 0 107 -49.5t39 -112.5q0 -69 -51 -132.5t-118.5 -102.5t-140.5 -60q-10 4 -14.5 17.5z" />
<glyph unicode="-" horiz-adv-x="655" d="M111.5 413q5.5 39 25.5 58l498 45q15 -20 9.5 -59t-26.5 -58l-497 -45q-15 20 -9.5 59z" />
<glyph unicode="." horiz-adv-x="512" d="M94 68q0 54 35.5 90.5t81.5 36.5q42 0 66 -27.5t24 -65.5q0 -59 -35 -95t-82 -36q-42 0 -66 26t-24 71z" />
<glyph unicode="/" horiz-adv-x="512" d="M-14 -33l626 1417h119l-627 -1417h-118z" />
<glyph unicode="0" d="M152 367q0 189 74.5 390t195.5 343q177 211 379 211q293 0 293 -393q0 -178 -77.5 -387t-197.5 -355q-168 -205 -362 -205q-74 0 -130 25.5t-88.5 65t-52.5 94t-27 105t-7 106.5zM309 250q0 -217 156 -217q50 0 97.5 32t81.5 75t69 109.5t53.5 110.5t40.5 103 q129 351 129 557q0 229 -141 229q-66 0 -135 -60t-128 -161q-93 -161 -158 -386t-65 -392z" />
<glyph unicode="1" d="M187 21q0 19 12 24l51 6q94 12 127 49t69 162l205 690q35 120 28.5 155.5t-65.5 41.5l-94 10q-9 8 -7 22t11 19q228 39 365 111q19 3 26 -11q-51 -132 -86 -247l-241 -805q-15 -51 -20.5 -82.5t-4.5 -53.5t14.5 -34t32 -17.5t52.5 -9.5l53 -6q9 -7 8.5 -26t-10.5 -25 q-156 6 -264 6q-112 0 -250 -6q-12 8 -12 27z" />
<glyph unicode="2" d="M-18 16q0 7 2 11q203 136 419 317q13 11 57 47.5t65 54t64 55.5t67 61.5t61.5 62t59 67.5t47.5 68t40 72t23.5 71t9.5 74q0 113 -60.5 175t-156.5 62q-168 0 -307 -188q-16 -8 -30 1t-13 30q68 117 180.5 185.5t232.5 68.5q157 0 244.5 -82.5t87.5 -222.5 q0 -71 -28.5 -140t-82 -132t-106 -111.5t-125.5 -104.5l-174 -135q-274 -212 -274 -242q0 -18 69 -18h240q52 0 76.5 0.5t55 5t44 10.5t34 21.5t36 34t39.5 51.5q27 10 43 -13q-21 -63 -56.5 -136t-60.5 -103q-102 4 -152 4q-49 2 -149 2h-295q-160 0 -215 -6q-12 6 -12 22z " />
<glyph unicode="3" d="M-10 6q0 36 24 60t62 24q12 0 23 -4t17.5 -7t17 -14.5t13 -14.5t13.5 -19t12 -17q37 -55 117 -55q52 0 126 22.5t140 65.5q110 72 169.5 182t59.5 238q0 102 -59.5 164.5t-167.5 62.5q-122 0 -242 -104q-25 3 -34 30t8 50q252 100 366 168q189 112 189 237 q0 79 -45 116.5t-111 37.5q-149 0 -305 -180q-18 -2 -28 7t-9 27q64 99 169 163.5t235 64.5q126 0 194 -59t68 -158q0 -41 -20 -79.5t-49 -67t-71.5 -56t-77 -45t-77.5 -35.5q-23 -11 -16.5 -23.5t32.5 -17.5q97 -19 164.5 -92.5t67.5 -188.5q0 -135 -90 -262t-211 -202 q-225 -140 -469 -140q-92 0 -148.5 33t-56.5 88z" />
<glyph unicode="4" d="M74 422q0 13 11 27t42 45l6 6l930 919q27 27 51 27h39q27 0 27 -16q0 -6 -17 -23l-921 -899q-30 -30 2 -36q14 -3 47 -3h321q37 0 50.5 9t23.5 44l113 381q9 30 28 41q67 35 113 35q10 0 14.5 -3.5t4 -14t-2.5 -18.5t-8 -28l-117 -393q-10 -29 -4.5 -41t31.5 -12h129 q9 -19 1 -44t-25 -34h-109q-39 0 -52.5 -8.5t-23.5 -40.5l-39 -125q-31 -93 -25 -126t64 -40l51 -6q9 -7 6.5 -27t-12.5 -24q-123 6 -221 6q-116 0 -242 -6q-12 5 -11 25t13 26l82 6q72 6 98 37t54 129l35 119q11 40 4.5 47.5t-47.5 7.5h-494q-13 0 -16.5 7t-3.5 24z" />
<glyph unicode="5" d="M21.5 -108q-2.5 25 13.5 38q169 1 311.5 44.5t236.5 115.5t146.5 166t52.5 197q0 82 -26.5 143.5t-69 98t-105.5 59.5t-126.5 31.5t-141.5 9.5q-11 0 -16.5 4t-5.5 12.5t3.5 19t10.5 27.5l168 356q12 26 31 38t59 18l514 69q15 -3 23 -18q-14 -34 -38.5 -68t-49.5 -53 l-422 -57q-50 -6 -68 -15.5t-30 -37.5l-58 -129q-11 -28 -7.5 -35.5t24.5 -10.5l55 -8q68 -10 122 -24t115 -44t102 -71.5t68 -109t27 -154.5q0 -175 -122 -320t-294 -219q-212 -92 -479 -104q-21 6 -23.5 31z" />
<glyph unicode="6" d="M139 371q0 210 124 425t302 347q319 237 721 276q12 -3 12.5 -21t-8.5 -24q-87 -22 -123.5 -32.5t-119 -38.5t-154 -66.5t-141.5 -89.5q-203 -149 -322 -377.5t-119 -439.5q0 -139 54.5 -218t169.5 -79q69 0 127 40.5t94 104t55.5 136.5t19.5 143q0 107 -49.5 169 t-136.5 62q-61 0 -106 -18q-18 26 -7 37q33 27 87.5 45t91.5 18q135 0 216 -84.5t81 -255.5q0 -83 -38 -165.5t-102 -147.5t-156.5 -105.5t-193.5 -40.5q-185 0 -282 106.5t-97 293.5z" />
<glyph unicode="7" d="M123 -88l868 1167q24 32 26 50t-11.5 24t-44.5 6h-392q-61 0 -91.5 -2t-57 -15t-39 -26.5t-43.5 -50.5q-8 -7 -24 -2t-21 16q63 93 106 209q62 -4 88 -4q33 -2 127 -2h347q249 0 276 6q18 -6 14 -24q-108 -101 -284 -340l-781 -1055q-26 -4 -45.5 10t-17.5 33z" />
<glyph unicode="8" d="M113 281q0 56 18.5 105t43.5 82t71 69t78.5 55t91 51.5t84.5 48.5q-71 47 -114.5 115t-43.5 137q0 152 115.5 259.5t275.5 107.5q150 0 239 -85.5t89 -215.5q0 -46 -19.5 -87t-45.5 -70t-74.5 -61.5t-83 -51t-95.5 -48.5q89 -63 146 -146t57 -179q0 -90 -38 -166 t-101 -125.5t-144 -77t-167 -27.5q-166 0 -274.5 83t-108.5 227zM268 287q0 -125 69 -189.5t167 -64.5q54 0 103 18.5t89 53.5t64 92.5t24 130.5q0 57 -18.5 106t-53.5 88t-71.5 67.5t-85.5 57.5q-140 -81 -213.5 -164t-73.5 -196zM485 997q0 -44 14.5 -81t45 -69.5t62 -57 t81.5 -56.5q49 30 85 57.5t70.5 64.5t53 81.5t18.5 95.5q0 96 -51 156.5t-141 60.5q-97 0 -167.5 -70t-70.5 -182z" />
<glyph unicode="9" d="M9.5 -101q-3.5 18 4.5 25q442 113 676 412q114 144 182 327.5t68 329.5q0 111 -47.5 183.5t-147.5 72.5q-85 0 -157 -56.5t-112 -146.5t-40 -188q0 -64 15 -114t56.5 -85.5t106.5 -35.5q42 0 78 8q9 -4 11.5 -17t-3.5 -22q-30 -21 -78 -35t-85 -14q-122 0 -198.5 82.5 t-76.5 212.5q0 81 37.5 165.5t101 152.5t156 111.5t193.5 43.5q93 0 163 -29.5t111.5 -83t61.5 -122t20 -152.5q0 -108 -47 -241.5t-129 -256.5q-156 -230 -389.5 -368.5t-515.5 -180.5q-12 4 -15.5 22z" />
<glyph unicode=":" horiz-adv-x="512" d="M94 68q0 54 35.5 90.5t81.5 36.5q42 0 66 -27.5t24 -65.5q0 -59 -35 -95t-82 -36q-42 0 -66 26t-24 71zM274 680q0 54 35.5 90.5t81.5 36.5q42 0 66 -27t24 -65q0 -59 -34.5 -95t-81.5 -36q-43 0 -67 26t-24 70z" />
<glyph unicode=";" horiz-adv-x="512" d="M3.5 -199.5q-4.5 13.5 0.5 23.5q189 86 189 213q0 30 -18 51.5t-50 28.5q-13 3 -22 15.5t-9 29.5q0 33 26 55.5t62 22.5q68 0 107 -49.5t39 -112.5q0 -69 -51 -132.5t-118.5 -102.5t-140.5 -60q-10 4 -14.5 17.5zM274 680q0 54 35.5 90.5t81.5 36.5q42 0 66 -27t24 -65 q0 -59 -34.5 -95t-81.5 -36q-43 0 -67 26t-24 70z" />
<glyph unicode="&#x3c;" horiz-adv-x="1146" d="M242 373v92l796 379v-119l-649 -303v-4l649 -305v-117z" />
<glyph unicode="=" horiz-adv-x="1146" d="M242 217v100h788v-100h-788zM242 524v101h788v-101h-788z" />
<glyph unicode="&#x3e;" horiz-adv-x="1146" d="M242 -4v117l649 305v4l-649 303v119l796 -379v-92z" />
<glyph unicode="?" horiz-adv-x="614" d="M135 68q0 54 35.5 90.5t81.5 36.5q42 0 66 -27.5t24 -65.5q0 -59 -35 -95t-82 -36q-42 0 -66 26t-24 71zM223 633q24 91 160 166l127 71q84 47 125 89.5t41 97.5q0 65 -43.5 105t-100.5 40q-48 0 -92 -22q-7 -4 -17 -10t-16.5 -9.5t-11.5 -3.5q-15 0 -27 15.5t-12 41.5 q0 43 42.5 76t105.5 33q90 0 164.5 -89.5t74.5 -201.5q0 -98 -53.5 -169.5t-157.5 -129.5l-137 -76q-50 -28 -72 -58.5t-22 -74.5q0 -46 18 -98q-4 -9 -14.5 -12t-17.5 2q-36 46 -57.5 103.5t-6.5 113.5z" />
<glyph unicode="@" horiz-adv-x="1576" d="M225 313q0 175 67 324.5t179 249t258.5 155.5t304.5 56q142 0 258.5 -44.5t191 -119.5t114.5 -170t40 -199q0 -99 -36.5 -188t-103 -157t-168 -108t-222.5 -40q-147 0 -147 45q0 21 16 63l51 129l-4 2q-93 -96 -208.5 -167.5t-178.5 -71.5q-40 0 -62 27t-22 65 q0 40 38 129t118 186q209 258 409 258q22 0 45.5 -12.5t30.5 -32.5l51 105q23 9 53 0t45 -25q-30 -68 -123.5 -288.5t-115.5 -278.5q-14 -35 -3 -51t50 -15q110 4 199.5 53.5t144.5 144.5t55 220q0 141 -71 249.5t-191.5 165t-271.5 56.5q-148 0 -272 -58.5t-205.5 -157 t-126.5 -227t-45 -270.5q0 -77 18 -151.5t62.5 -150.5t111.5 -133t175 -92.5t243 -35.5q68 0 135 13.5t100.5 25.5t81.5 33q11 -5 16 -16t1 -23q-85 -54 -191.5 -79t-204.5 -25q-103 0 -201.5 24t-187.5 75t-155.5 123.5t-106 178t-39.5 231.5zM715 193q0 -27 24 -27 q8 0 25.5 7t55.5 33t83 66q69 61 145.5 170t98.5 164q-8 25 -32 42.5t-56 17.5q-31 0 -59 -14t-70 -48q-84 -67 -149.5 -196t-65.5 -215z" />
<glyph unicode="A" horiz-adv-x="1220" d="M-116 20q2 16 10 25l55 6q82 8 147 86q72 91 338 461l361 508q110 154 123 211q31 4 67 21t59 32l23 14q8 0 16.5 -5t8.5 -11q0 -14 -3 -50t-8.5 -106t-9.5 -145l-41 -774q-4 -68 -5.5 -97t2 -63t7 -43t19 -20.5t30 -13t47.5 -5.5l54 -6q7 -7 7 -19q0 -4 -1 -8 q-3 -18 -14 -24q-94 6 -232 6q-144 0 -235 -6q-15 6 -15.5 25.5t13.5 25.5l63 6q31 3 52 12.5t28 20.5q15 25 22 127l19 274q3 36 -4 45t-39 9h-295q-46 0 -62 -9.5t-45 -54.5l-159 -233q-92 -144 -92 -154q0 -24 47 -31l88 -12q11 -9 9 -27t-13 -24q-95 6 -209 6 q-117 0 -228 -6q-6 7 -6 20q1 3 1 6zM560 626q6 -6 40 -5h258q26 0 33 6.5t8 34.5l33 448q1 18 1 29q0 24 -5 24q-11 0 -78 -100l-285 -412q-8 -12 -8 -19q1 -4 3 -6z" />
<glyph unicode="B" horiz-adv-x="1189" d="M38 20q0 16 11 25l41 6q53 8 79 25t49.5 64t55.5 155l248 805q25 80 25.5 118t-18.5 50.5t-68 13.5l-68 2q-10 8 -9 24.5t9 24.5q185 25 344 25q215 0 332 -49q174 -75 174 -258q0 -73 -33.5 -134t-84.5 -97.5t-103 -57t-98 -23.5q-15 -1 -18.5 -5t2.5 -9t16 -8 q91 -30 152 -112t61 -189q0 -158 -111 -266q-156 -156 -491 -156q-59 0 -146 3t-127 3q-122 0 -211 -6q-13 7 -13 26zM410 236q-13 -43 -13 -74q1 -42 23 -65q40 -40 153 -40q68 0 134 22t124 65.5t94 120t36 175.5q0 123 -89.5 190.5t-214.5 67.5q-75 0 -93.5 -9.5 t-33.5 -59.5zM590 771q12 -11 76 -11q48 0 99.5 9t108 33t100.5 60t72.5 95t28.5 133q0 92 -67.5 148t-190.5 56q-60 0 -72.5 -7.5t-27.5 -57.5l-127 -410q-7 -19 -7 -31q1 -12 7 -17z" />
<glyph unicode="C" horiz-adv-x="1323" d="M209 518q0 172 80.5 335t212.5 282q130 118 309.5 183.5t378.5 65.5q170 0 336 -65q-63 -153 -92 -275q-6 -12 -28.5 -10.5t-27.5 13.5q11 52 11 94q0 71 -31 113q-50 68 -203 67q-290 0 -524 -229q-91 -91 -166.5 -259.5t-75.5 -353.5q0 -219 101 -333.5t296 -114.5 q102 0 187.5 39.5t143 99t110.5 147.5q15 6 30 2.5t19 -16.5q-41 -124 -133 -289q-28 0 -162 -22q-147 -25 -199 -25q-85 0 -162.5 15.5t-154 55t-132 100t-90 158.5t-34.5 222z" />
<glyph unicode="D" horiz-adv-x="1513" d="M28 20q0 16 11 25l53 6q50 5 76 23t48.5 65.5t55.5 155.5l256 829q21 76 21 108q0 8 -1 14q-7 26 -54 32l-82 10q-9 6 -9.5 23.5t9.5 25.5q163 21 381 21q123 0 226.5 -17.5t178 -47.5t133 -73t95.5 -91.5t61 -105.5t33.5 -111t9.5 -113q0 -195 -87 -357t-237 -264 q-269 -184 -684 -184q-23 0 -105.5 3t-150.5 3q-117 0 -225 -6q-13 7 -13 26zM406 233q-11 -38 -11 -66q-1 -41 23 -63q40 -38 174 -38q122 0 228 28.5t181.5 75t136.5 109.5t99.5 129.5t64 137t36 129t10.5 109.5q0 38 -1.5 69t-8 73.5t-17.5 76.5t-31 73.5t-47.5 69.5 t-69 59t-92.5 47.5t-121 30t-153 11.5q-46 0 -63.5 -15t-32.5 -65z" />
<glyph unicode="E" horiz-adv-x="1159" d="M3 20q0 16 11 25l72 6q52 4 78.5 22.5t48.5 64.5t57 157l238 762q13 43 19.5 65.5t13.5 50t8 40t-0.5 28.5t-7.5 22t-17 14t-25 12t-36 9l-41 9q-10 12 -7 28.5t19 22.5q74 -4 109 -4q37 -2 119 -2h387q227 0 288 6q-31 -79 -84 -273q-6 -12 -26 -11t-25 13q6 53 6.5 89 t-17.5 59t-61 35q-70 18 -217 18h-120q-40 0 -53 -11.5t-27 -57.5l-131 -420q-15 -43 -10.5 -51.5t46.5 -8.5h103q147 0 197.5 17.5t85.5 83.5l32 61q6 11 27 9.5t24 -13.5q-36 -90 -69 -199q-29 -92 -53 -198q-9 -12 -27.5 -11t-24.5 13v57q0 27 -4 45t-16.5 30.5t-25 19 t-41.5 10t-53 4t-71 0.5h-102q-43 0 -55 -8.5t-25 -51.5l-84 -276q-16 -52 -23.5 -79.5t-14 -59.5t-5.5 -52t8 -35q11 -23 57.5 -33t170.5 -10q77 0 120.5 3t91.5 14t81 34.5t68.5 62t74.5 99.5q12 8 26.5 4.5t20.5 -16.5q-16 -54 -60.5 -143.5t-80.5 -126.5q-35 1 -112 2 t-116 2q-40 0 -121 1t-120 1h-242q-109 0 -244 -6q-13 7 -13 26z" />
<glyph unicode="F" horiz-adv-x="1091" d="M14 20q0 16 11 25l63 6q52 5 78.5 23.5t48.5 64.5t57 156l240 762q18 56 26 84t13 58t2.5 42t-13.5 25.5t-28 19t-47 12.5l-37 9q-10 12 -7 28.5t19 22.5q18 -1 52.5 -2t52.5 -2q17 0 56 -1t61 -1h380q230 0 289 6q-31 -79 -84 -273q-6 -12 -26 -11t-25 13q6 53 6.5 89 t-17.5 59t-61 35q-70 18 -217 18h-112q-41 0 -51.5 -10t-26.5 -59l-142 -449q-11 -32 -5 -41.5t38 -9.5h142q146 0 195.5 17.5t84.5 82.5l35 64q7 9 28.5 7.5t24.5 -11.5q-37 -98 -69 -195q-42 -127 -54 -205q-9 -10 -25.5 -9.5t-27.5 9.5l2 78q2 52 -42 71t-169 19h-151 q-33 0 -43.5 -9t-22.5 -48l-90 -295q-16 -54 -24.5 -84t-14 -61t-3 -45.5t11.5 -28t25.5 -18.5t43.5 -7l80 -6q9 -11 6 -28t-14 -23q-179 6 -279 6q-111 0 -231 -6q-13 7 -13 26z" />
<glyph unicode="G" horiz-adv-x="1439" d="M207 500q0 162 73 330t222 298q293 256 712 256q198 0 351 -65q-62 -130 -97 -272q-6 -12 -26 -11t-25 13q10 49 10 88q0 76 -35 119q-54 65 -202 65q-170 0 -297.5 -57t-239.5 -162q-112 -104 -189 -288.5t-77 -356.5q0 -117 34 -203t93 -133t128 -68.5t151 -21.5 q79 0 125.5 10t84 44t58.5 99l53 168q13 43 19.5 66t9 47t-1.5 35t-17 22t-32.5 16t-51.5 9l-79 10q-11 9 -9.5 27t13.5 24q135 -6 245 -6q160 0 234 6q11 -6 11 -25t-13 -26l-35 -10q-33 -10 -47.5 -16.5t-31 -29t-27 -52.5t-31.5 -97l-64 -202q-4 -13 -4 -24q0 -25 21 -38 q4 -16 -9 -29q-112 -39 -232 -65.5t-198 -26.5q-271 0 -424 141t-153 392z" />
<glyph unicode="H" horiz-adv-x="1558" d="M30 19q0 16 11 26l47 6q32 4 51 10.5t36.5 19.5t32 42t29 67t35.5 105l240 762q18 56 26 84.5t13.5 59t2.5 43.5t-13.5 26t-28 18t-47.5 10l-49 9q-10 13 -7 29t19 22q123 -6 238 -6q108 0 237 6q11 -6 12 -22.5t-12 -28.5l-47 -9q-24 -4 -39 -7t-31 -11t-24.5 -13 t-20 -21.5t-17.5 -28t-17 -41t-18.5 -51.5t-22.5 -68l-84 -264q-12 -35 -3.5 -42.5t62.5 -7.5h541q39 0 55 0.5t28.5 6.5t15.5 12.5t9 25.5l84 269q18 58 25.5 84.5t13.5 58.5t3 44t-13 25.5t-27.5 18.5t-46.5 10l-51 9q-8 10 -5 27.5t17 23.5q126 -6 240 -6q102 0 237 6 q11 -6 12 -24v-3q0 -16 -12 -24l-49 -9q-31 -5 -49.5 -9.5t-37 -16.5t-28 -24.5t-23.5 -42.5t-24 -60.5t-28 -87.5l-238 -762q-17 -54 -25.5 -84t-13.5 -60.5t-2.5 -45t11.5 -27.5t25.5 -18.5t43.5 -8.5l55 -6q9 -15 6 -30t-14 -21q-144 6 -250 6q-111 0 -237 -6 q-12 7 -12.5 24t10.5 27l65 6q51 4 77.5 22t50 65.5t57.5 156.5l98 311q12 40 2 48t-76 8h-557q-47 0 -57 -7.5t-21 -42.5l-100 -317q-17 -53 -25.5 -84t-13.5 -61t-2.5 -45t11.5 -28t25.5 -18t43.5 -8l63 -6q9 -12 6 -28.5t-14 -22.5q-150 6 -258 6q-120 0 -219 -6 q-13 7 -13 25z" />
<glyph unicode="I" horiz-adv-x="698" d="M14 20q0 16 11 25l63 6q52 5 78.5 23.5t48.5 64.5t57 156l240 762q18 56 26 84.5t13.5 59t2.5 43.5t-13.5 26t-28 18t-47.5 10l-49 9q-10 12 -7 28.5t19 22.5q123 -6 238 -6q98 0 245 6q11 -6 12 -24v-3q0 -16 -12 -24l-55 -9q-32 -5 -51 -9t-37.5 -17t-27.5 -24 t-23 -43.5t-23 -59.5t-28 -88l-240 -762q-17 -53 -25.5 -84t-13.5 -61t-2.5 -45t11.5 -28t25.5 -18t43.5 -8l63 -6q9 -11 6 -28t-14 -23q-150 6 -258 6q-112 0 -235 -6q-13 7 -13 26z" />
<glyph unicode="J" horiz-adv-x="696" d="M-238 -352q0 27 25 57.5t55 30.5q7 0 14.5 -1.5t12.5 -3t13 -5t11 -5.5t13 -7.5t12 -6.5q53 -31 98 -31q38 0 70 47.5t64 131.5q48 124 135 401l247 801q17 56 25 84.5t13.5 59.5t2.5 44t-13.5 26t-28 18.5t-46.5 10.5l-51 9q-10 12 -7 27.5t19 21.5q126 -6 240 -6 q106 0 229 6q12 -7 12 -26q0 -16 -12 -23l-55 -9q-27 -4 -43.5 -8t-32.5 -17t-25 -25t-22.5 -44t-23 -61t-27.5 -88l-291 -936q-57 -184 -129 -305q-135 -228 -375 -228q-53 0 -91 14.5t-38 45.5z" />
<glyph unicode="K" horiz-adv-x="1275" d="M14 20q0 16 11 25l63 6q52 5 78.5 23.5t48.5 64.5t57 156l240 762q21 66 29.5 98.5t13 63.5t-4.5 43.5t-25 21t-48 14.5l-47 9q-10 12 -7 28.5t19 22.5q99 -6 222 -6q105 0 243 6q12 -6 11 -25t-17 -26l-41 -9q-34 -7 -52 -11.5t-37.5 -17.5t-28.5 -24t-23.5 -42 t-24 -58.5t-28.5 -87.5l-86 -271q-12 -34 -5.5 -45.5t41.5 -11.5q46 0 89 21q73 42 215 178l204 194q133 127 133 152q0 13 -49 24l-39 9q-11 9 -7.5 28t16.5 23q102 -6 225 -6q44 0 221 6q13 -8 13 -25l-1 -1q0 -18 -14 -25l-43 -9q-81 -13 -137 -36q-119 -52 -363 -275 l-262 -239q-27 -24 -29.5 -33.5t13.5 -44.5l225 -451q44 -90 80 -124.5t106 -43.5l54 -6q10 -9 8 -27.5t-14 -23.5q-99 6 -218 6q-114 0 -231 -6q-7 12 -6 28.5t12 22.5l53 6q21 2 32.5 7t17 11.5t2 21t-10 28.5t-20.5 43l-215 422q-29 57 -47 74.5t-35 17.5 q-28 0 -43.5 -14t-24.5 -44l-100 -323q-17 -53 -25.5 -84t-13.5 -61t-2.5 -45t11.5 -28t25.5 -18t43.5 -8l57 -6q9 -11 6 -28t-14 -23q-141 6 -254 6q-110 0 -233 -6q-13 7 -13 26z" />
<glyph unicode="L" horiz-adv-x="1118" d="M26 20q0 16 11 25l49 6q32 4 51 10.5t36.5 19.5t32 42t29 67t35.5 105l240 762q18 56 26 84.5t13.5 59t2.5 43.5t-13.5 26t-28 18t-47.5 10l-49 9q-10 12 -7 28.5t19 22.5q28 -1 73.5 -2.5t84 -2.5t75.5 -1q50 0 135.5 2.5t123.5 3.5q11 -6 12 -24.5t-12 -26.5l-64 -9 q-31 -4 -50 -8t-37.5 -16.5t-28 -24t-23.5 -43.5t-23 -60.5t-28 -88.5l-226 -725q-44 -140 -44 -180v-2q0 -53 50 -71q44 -16 160 -16q58 0 93 1t76.5 5.5t67.5 13.5t56.5 24t54 38t49 55t52.5 76q15 5 28.5 1.5t16.5 -13.5q-17 -52 -60 -140t-71 -130q-152 4 -240 4 q-82 2 -233 2h-238q-118 0 -217 -6q-13 7 -13 26z" />
<glyph unicode="M" horiz-adv-x="1789" d="M-27 45l56 6q81 7 116 55q41 51 248 588l107 277q86 220 86 274q0 21 -14 31.5t-44 15.5l-96 15q-9 9 -6 27t16 24q144 -6 226 -6q72 0 137 6q-14 -46 -15 -113v-19q0 -56 5 -103q6 -55 20 -165l33 -264q22 -170 45 -375h4q36 43 75 93t87.5 113.5t73.5 95.5l325 419 q173 223 199 318q53 -6 127 -6q112 0 207 6q10 -8 10 -22v-3q-1 -16 -10 -26l-47 -9q-96 -16 -123 -47q-21 -24 -40 -76.5t-55 -177.5l-178 -635q-55 -196 -59 -256q-1 -25 19 -38.5t63 -16.5l69 -6q10 -11 7 -28t-15 -23q-114 6 -262 6q-134 0 -248 -6q-10 9 -10 27t10 24 l54 6q82 9 112 39q38 38 105 260l163 537q60 188 78 258l-6 2q-7 -9 -66 -88t-124 -162l-312 -403l-121.5 -159t-102 -141.5t-103.5 -160.5q-9 -6 -21 -3t-18 11v10q0 93 -33 408l-70 688h-4q-23 -51 -94 -244l-153 -414q-123 -331 -123 -383q0 -19 12.5 -30t48.5 -17 l88 -14q6 -9 4 -26t-10 -25q-86 6 -236 6q-120 0 -219 -6q-9 9 -9 26q0 21 11 25z" />
<glyph unicode="N" horiz-adv-x="1513" d="M2 18q0 3 -1 5q0 13 9 22l51 6q63 5 101 35q26 20 60 106.5t95 284.5l162 524q8 24 21 66t19.5 62.5t14 46.5t10.5 42t3 27q0 21 -12.5 30.5t-40.5 14.5l-82 17q-12 10 -8.5 28.5t18.5 22.5q16 -1 47.5 -2t48.5 -2q15 0 52.5 -1t60.5 -1h127v-29q0 -48 100 -297l207 -510 q86 -207 100 -231q18 0 35 57l162 514q98 313 98 379q0 30 -9 41.5t-42 17.5l-80 13q-9 14 -4.5 29.5t16.5 21.5q108 -6 232 -6q105 0 194 6q10 -7 10 -29q0 -14 -8 -22l-47 -9q-84 -14 -106 -36t-71.5 -143.5t-96.5 -268.5l-148 -459q-63 -194 -129 -422q-13 -13 -36 -13 q-6 0 -13 1q-63 192 -190 500l-162 393q-20 49 -50 126.5t-51 129.5t-36 82q-10 0 -66 -180l-159 -533q-33 -108 -86 -340q-3 -14 -3 -26q0 -25 16 -35q24 -16 87 -23l47 -6q9 -9 7 -26t-13 -25q-91 6 -234 6q-120 0 -215 -6q-10 8 -12 24z" />
<glyph unicode="O" horiz-adv-x="1495" d="M209 502q5 196 87.5 379t240.5 317q220 186 499 186q103 0 192 -35t158 -102.5t106 -176.5q31 -92 32 -204q0 -21 -2 -43q-8 -173 -82.5 -346t-194.5 -287q-234 -223 -536 -223q-126 0 -225.5 46.5t-159.5 123.5q-58 77 -88 171q-27 85 -27 175v19zM381 424v-17 q0 -67 14 -127q16 -66 53 -124t107.5 -91.5t167.5 -33.5q188 0 342 164q131 141 205 339.5t80 378.5q1 14 1 28q-1 173 -81 273q-86 108 -242 107q-162 0 -307 -123q-58 -49 -114 -125t-106 -174t-83 -222.5t-37 -252.5z" />
<glyph unicode="P" horiz-adv-x="1130" d="M16 20q0 16 11 25l63 6q52 5 78.5 23.5t48.5 64.5t57 156l265 848q16 50 16 79q0 13 -3 22q-11 28 -67 32l-98 8q-10 9 -7.5 24.5t13.5 24.5q157 25 344 25q283 0 406 -101q112 -96 112 -253q0 -98 -47.5 -178t-126.5 -136q-73 -51 -178 -77.5t-201 -26.5 q-12 4 -13.5 18.5t7.5 24.5q49 6 99 22t102.5 49t93 77t66.5 111.5t26 147.5q0 129 -74.5 193.5t-201.5 64.5q-48 0 -61 -11t-29 -60l-289 -928q-20 -64 -29 -98.5t-13 -66t5 -45.5t26.5 -23t49.5 -11l74 -6q9 -11 5.5 -28t-14.5 -23q-147 6 -268 6q-112 0 -235 -6 q-13 7 -13 26z" />
<glyph unicode="Q" horiz-adv-x="1495" d="M209 502q5 196 87.5 379t240.5 317q220 186 499 186q103 0 192 -35t158 -102.5t106 -176.5q31 -92 31 -204q0 -21 -1 -43q-8 -173 -82.5 -346t-194.5 -287q-159 -152 -336 -194q-21 -12 -2 -31q253 -253 439 -319q73 -27 176 -27q69 0 116 21q9 -4 12 -14q1 -5 1 -8 q0 -5 -2 -9q-40 -29 -105 -43.5t-125 -14.5q-191 0 -373.5 107.5t-308.5 265.5q-19 24 -40 35t-54 12q-48 3 -102 19.5t-115.5 57t-109.5 98t-78 150.5q-29 87 -29 192v14zM381 424v-17q0 -67 14 -127q16 -66 53 -124t107.5 -91.5t167.5 -33.5q188 0 342 164 q131 141 205 339.5t80 378.5q1 14 1 28q0 173 -81 273q-86 107 -242 107q-162 0 -307 -123q-58 -49 -114 -125t-106 -174t-83 -222.5t-37 -252.5z" />
<glyph unicode="R" horiz-adv-x="1175" d="M30 20q0 16 11 25l45 6q40 6 61 14t42.5 35.5t38 69.5t42.5 125l240 766q31 100 37.5 144t-5.5 58.5t-50 18.5l-78 8q-8 12 -5.5 28.5t15.5 22.5q142 17 348 17q270 0 387 -107q94 -82 94 -233q0 -74 -32.5 -139.5t-85 -110t-113 -73.5t-121.5 -40q-21 -3 -25.5 -13 t1.5 -36q46 -189 102 -354q17 -50 26.5 -74.5t26.5 -54.5t35 -43.5t46.5 -25t68.5 -15.5q9 -9 7 -20.5t-7 -18.5q-50 -6 -129 -6q-80 0 -123 24.5t-68 96.5q-79 236 -121 397q-19 70 -35.5 86t-66.5 16q-56 0 -79.5 -4.5t-34.5 -16.5t-21 -44l-80 -254q-17 -54 -25 -84 t-13.5 -60t-3 -44.5t12 -27.5t26.5 -18.5t44 -9.5l49 -6q9 -11 6 -28t-14 -23q-129 6 -246 6q-122 0 -217 -6q-13 7 -13 26zM558 700q2 -12 5 -15.5t17.5 -7t28.5 -3.5h44q80 0 156.5 26.5t137 73.5t98.5 117.5t40 152.5v10q-1 113 -67 175q-70 65 -201 65q-40 0 -59 -6 t-26.5 -17.5t-16.5 -41.5l-144 -469q-7 -24 -11 -36q-2 -8 -2 -17v-7z" />
<glyph unicode="S" horiz-adv-x="964" d="M74 111q-1 15 -1 31q-1 42 7 92q10 68 31 114q9 8 22.5 7t20.5 -11q11 -144 84 -228.5t219 -84.5q52 0 102.5 17t95.5 50t73 90.5t28 130.5q0 44 -11.5 84t-28.5 69.5t-46.5 62t-54.5 54t-64 52.5q-213 173 -213 356q0 169 123 278t325 109q90 0 172.5 -26t124.5 -55 q-10 -18 -21.5 -50.5t-19 -58.5t-19 -70.5t-15.5 -58.5q-11 -9 -29 -8t-27 10q8 40 8 75q0 64 -28 109q-44 70 -172 70q-133 0 -205 -75t-72 -187q0 -48 19 -94t54.5 -85.5t61.5 -63t64 -52.5q106 -81 163.5 -168.5t57.5 -204.5q0 -185 -130 -304.5t-341 -119.5 q-115 0 -211 36.5t-147 107.5z" />
<glyph unicode="T" horiz-adv-x="1298" d="M293 1124q89 143 147 275q6 7 19.5 7t19.5 -7q-5 -28 25 -37.5t123 -9.5h757q80 0 112.5 8.5t62.5 38.5q7 3 19 0t15 -10q-29 -50 -67.5 -148.5t-48.5 -142.5q-6 -10 -22.5 -10t-24.5 10q2 35 2.5 55t-1 42.5t-6 34t-14.5 24t-24 17.5t-36.5 10t-49.5 6t-66 1h-125 q-49 0 -61 -12t-33 -78l-283 -903q-20 -64 -29 -98.5t-13 -66t4.5 -45.5t26 -23t48.5 -11l76 -6q13 -10 11 -27.5t-19 -23.5q-166 6 -271 6q-106 0 -250 -6q-12 7 -12.5 24.5t10.5 26.5l80 6q48 3 74.5 20.5t51.5 67t59 156.5l282 903q12 36 16 52.5t-2.5 26t-17 10.5 t-39.5 1h-135q-76 0 -124.5 -8.5t-88 -34.5t-64 -54t-67.5 -87q-15 -6 -29.5 0t-17.5 20z" />
<glyph unicode="U" horiz-adv-x="1503" d="M326 545l159 512q17 56 25 84.5t13.5 59.5t2.5 44t-13.5 26t-28 18.5t-46.5 10.5l-51 9q-9 9 -7 26t15 23q129 -6 240 -6q102 0 252 6q11 -6 11 -24t-13 -25l-58 -9q-23 -3 -39 -6t-31 -11t-24 -13t-20.5 -22t-17 -28.5t-17 -42t-18 -52t-21.5 -68.5l-147 -473 q-46 -151 -47 -260q0 -283 313 -283q83 0 154.5 29t123.5 76t96.5 115.5t74.5 136.5t57 151l94 289q63 194 82 317q7 45 8.5 74.5t-18 46.5t-68.5 24l-57 9q-9 10 -6.5 26.5t14.5 22.5q150 -6 219 -6q101 0 221 6q12 -8 12 -25t-12 -24l-47 -9q-40 -7 -63.5 -16t-41.5 -28.5 t-29 -41t-28 -65.5q-21 -55 -100 -311l-94 -301q-97 -303 -240 -428q-77 -68 -181.5 -105t-205.5 -37q-281 0 -383 148q-55 80 -55 198q0 102 41 232z" />
<glyph unicode="V" horiz-adv-x="1273" d="M268 1336q4 16 19 22q94 -6 198 -6q125 0 224 6q13 -6 13.5 -24t-11.5 -25l-58 -9q-67 -9 -81 -33q-9 -15 -8 -56q0 -25 3 -60l72 -770q9 -115 20 -123q16 7 93 121l233 348q251 374 303 459q33 54 33 78q0 26 -39 32l-76 13q-9 9 -7.5 27t13.5 22q120 -6 230 -6 q102 0 182 6q11 -6 11 -22t-7 -27l-59 -9q-69 -8 -121 -69q-39 -43 -143.5 -182.5t-204.5 -286.5l-174 -254q-64 -93 -199.5 -300t-151.5 -235q-9 -6 -24 -6t-27 6q-2 80 -14 222l-84 878q-13 134 -29.5 176t-68.5 51l-52 9q-8 9 -8 20q-1 3 0 7z" />
<glyph unicode="W" horiz-adv-x="1798" d="M255 1335q2 17 15 23q99 -6 199 -6q106 0 211 6q11 -5 11.5 -24t-9.5 -25l-76 -9q-40 -5 -53 -30q-8 -15 -8 -42q0 -19 4 -44l110 -774q15 -107 20.5 -137.5t12.5 -34.5q13 8 88 111q8 11 13 18t13.5 18.5t16.5 22.5l138 188q24 34 31 55t1 60l-69 467q-9 65 -27.5 89 t-67.5 33l-47 9q-10 9 -7.5 27t16.5 22q82 -6 200 -6q131 0 201 6q9 -5 9.5 -23t-9.5 -26l-68 -9q-40 -6 -53 -26q-8 -12 -8 -38q0 -18 4 -44l51 -387l37 55l70 103q154 225 188 290q10 18 -4 31t-39 16l-51 9q-11 7 -8 26t16 23q92 -6 182 -6q107 0 172 6q10 -6 9.5 -23.5 t-9.5 -25.5l-39 -9q-64 -13 -92.5 -35.5t-97.5 -109.5q-118 -149 -278 -387q-3 -4 -12 -15.5t-10.5 -14.5t-6 -11.5t-4.5 -14.5v-15.5t2 -22.5l39 -264q24 -161 35 -172q9 4 26.5 28.5t75.5 112.5q420 644 485 756q6 10 14 23.5t13 22t11 19t10 17t8 14t6.5 12.5t4.5 10.5 t3.5 9.5t1.5 7q3 12 -8.5 17.5t-44.5 12.5l-41 9q-9 9 -7.5 26t13.5 23q102 -6 186 -6q108 0 172 6q10 -5 10 -26q0 -18 -10 -23l-47 -9q-24 -4 -49 -19t-43 -30.5t-41.5 -44.5t-35 -45.5t-33 -49.5t-27.5 -42l-318 -467q-127 -188 -409 -629q-9 -6 -25 -6q-15 0 -24 6 q-15 178 -68 506l-12 76l-275 -391q-85 -124 -123 -191q-9 -6 -24 -6t-27 6q-9 136 -45 377l-117 807q-12 81 -20 98q-16 33 -71 44q-2 1 -5 1l-43 9q-9 8 -9 21v5z" />
<glyph unicode="X" horiz-adv-x="1179" d="M-94 19v5q0 15 8 21l47 6q81 10 141 52.5t174 166.5q17 20 130.5 140t205.5 221q21 24 21 48q0 11 -4 21q-25 64 -87.5 235t-90.5 245q-25 63 -46.5 86t-72.5 32l-45 9q-10 9 -6 27.5t16 23.5q138 -6 219 -6q130 0 209 6q10 -8 9.5 -25.5t-9.5 -25.5l-55 -9 q-64 -9 -76 -28q-5 -8 -5 -20q0 -19 11 -50q122 -343 150 -416q130 132 378 424q41 45 41 65q0 19 -47 25l-59 9q-9 10 -7 27t15 24q92 -6 205 -6q92 0 186 6q11 -6 11 -22q0 -21 -13 -29l-49 -9q-58 -10 -119 -63q-56 -48 -123 -113.5t-101 -100t-133 -140t-120 -127.5 q-27 -27 -31 -39t9 -45q39 -103 110.5 -281.5t93.5 -234.5q20 -51 44.5 -75.5t58.5 -27.5l76 -6q9 -6 8 -25.5t-13 -25.5q-120 6 -221 6q-124 0 -229 -6q-12 6 -13.5 25.5t9.5 25.5l45 6q31 4 47 8.5t27 15t10 28.5t-12 47q-108 299 -164 440q-191 -207 -416 -481 q-14 -18 -14 -29q0 -16 28 -21l82 -14q9 -7 7.5 -27.5t-13.5 -23.5q-108 6 -227 6q-120 0 -197 -6q-12 6 -14 25z" />
<glyph unicode="Y" horiz-adv-x="1155" d="M251 21q0 17 11 24l74 6q26 2 42.5 6t33 15.5t27 25t24.5 44.5t25.5 63t31.5 90l41 121q28 81 31 123v12q0 43 -17 127l-102 444q-23 101 -43.5 134t-73.5 42l-51 9q-9 11 -6 28t12 23q114 -6 217 -6q121 0 220 6q9 -8 9.5 -25t-9.5 -26l-60 -9q-58 -8 -74 -30 q-8 -12 -8 -35q0 -20 6 -47l105 -481q8 -38 19 -39t42 36l252 304q197 240 197 258q0 24 -60 34l-51 9q-11 9 -9.5 26.5t13.5 24.5q120 -6 213 -6q83 0 185 6q10 -6 10 -24t-10 -27l-43 -9q-83 -17 -115 -47q-33 -30 -94.5 -94t-106.5 -117l-233 -274q-110 -128 -142 -179.5 t-69 -168.5l-39 -123q-18 -56 -27.5 -89t-14.5 -63t-2.5 -44.5t13 -26t26.5 -15.5t44 -6l73 -6q10 -8 7.5 -27t-13.5 -24q-172 6 -274 6q-106 0 -244 -6q-13 7 -13 27z" />
<glyph unicode="Z" horiz-adv-x="1230" d="M-39 8q-1 4 -1 8q0 6 3 11q73 55 283 270l899 936q19 19 19 31q0 16 -32 21q-18 3 -45 3h-313q-118 0 -180.5 -15t-110.5 -56t-112 -134q-15 -8 -29.5 -0.5t-17.5 25.5q70 117 122 295q4 5 12 5t13 -5q7 -36 39.5 -43.5t157.5 -7.5h546q166 0 220 6q17 -2 17 -18 q0 -3 -1 -7q-13 -8 -35.5 -28t-54.5 -51t-62.5 -61t-73 -74t-72 -74.5t-75 -77.5t-65.5 -68l-469 -487q-277 -298 -277 -314q0 -10 11.5 -17t54.5 -12.5t119 -5.5h180q148 0 237.5 9t143.5 37q40 22 86.5 72t81.5 110q9 6 23.5 0t17.5 -17q-17 -63 -62.5 -152.5 t-79.5 -127.5q-106 4 -190 4q-70 2 -213 2h-479q-147 0 -226 -6q-7 2 -10 14z" />
<glyph unicode="[" horiz-adv-x="655" d="M82 -307l510 1712h133q201 0 223 -6q6 -8 4 -21.5t-10 -19.5l-190 -23q-47 -6 -58 -20q-43 -49 -123 -320l-266 -893q-84 -284 -72 -319q5 -15 48 -21l176 -22q3 -9 -1 -22t-10 -19q-26 -6 -231 -6h-133z" />
<glyph unicode="\" horiz-adv-x="696" d="M123 1384h117l391 -1417h-117z" />
<glyph unicode="]" horiz-adv-x="655" d="M-123 -279.5q2 13.5 10 19.5l191 22q45 6 57 21q43 50 123 319l266 893q84 285 72 320q-5 14 -47 20l-176 23q-3 9 0.5 22t9.5 19q26 6 231 6h134l-510 -1712h-134q-201 0 -223 6q-6 8 -4 21.5z" />
<glyph unicode="^" horiz-adv-x="1146" d="M240 500l362 782h98l361 -782h-127l-283 637l-282 -637h-129z" />
<glyph unicode="_" d="M0 -154h1024v-102h-1024v102z" />
<glyph unicode="`" horiz-adv-x="737" d="M342 1237q0 25 35 47q39 27 63 27q25 0 39 -45l94 -291q0 -11 -13 -18t-23 -5l-166 228q-29 43 -29 57z" />
<glyph unicode="a" horiz-adv-x="909" d="M41 86q0 48 45 160.5t135 236.5q139 191 271 265q105 59 184 59q25 0 49 -12q8 -4 21 -17t20 -26l57 131q14 6 29 6q14 1 30 -5q32 -10 42 -32q-35 -86 -133.5 -339.5t-141.5 -375.5q-16 -47 15 -47q53 0 210 137q11 0 20 -7.5t9 -18.5q-70 -93 -167 -161.5t-177 -68.5 q-31 0 -45 19t-14 37q0 20 20 79l68 185l-6 2q-106 -132 -241.5 -227t-209.5 -95q-41 0 -65.5 34.5t-24.5 80.5zM211 119q0 -18 8.5 -28.5t22.5 -10.5q19 0 69.5 31t128.5 102q108 100 177.5 219t97.5 223q-11 32 -38 53t-65 21q-35 0 -65 -17.5t-80 -62.5 q-97 -87 -176.5 -253.5t-79.5 -276.5z" />
<glyph unicode="b" horiz-adv-x="954" d="M141 160q0 118 105 403l237 631q33 89 37.5 121t-16.5 49l-47 33q-7 15 6 28q39 14 111 27q67 12 126 12h9l8 -12q-11 -29 -105 -272l-266 -701h4q115 175 219.5 266t214.5 91q87 0 132 -51.5t45 -133.5q0 -105 -70 -232t-195 -249q-112 -108 -216 -153.5t-175 -45.5 q-82 0 -123 49.5t-41 139.5zM279 141q0 -55 20.5 -80.5t50.5 -25.5q28 0 82.5 35t114.5 102q101 113 189.5 274.5t88.5 245.5q0 38 -20 56t-51 18q-43 0 -117 -55t-166 -160q-91 -104 -141.5 -218.5t-50.5 -191.5z" />
<glyph unicode="c" horiz-adv-x="692" d="M92 188q0 113 67.5 265t192.5 264q131 119 266 119q73 0 112.5 -35t39.5 -86q0 -37 -22 -61t-42.5 -30t-35.5 -6q-35 0 -41 37q0 4 -2 22t-3 23.5t-4 20t-8 20t-12 13.5t-18 11t-25 3q-36 0 -81.5 -34.5t-90.5 -102.5q-54 -80 -93.5 -195.5t-43.5 -228.5v-13 q0 -120 88 -120q86 0 221 125q15 1 23.5 -9.5t3.5 -25.5q-64 -83 -155 -138t-183 -55q-66 0 -110 53t-44 164z" />
<glyph unicode="d" horiz-adv-x="970" d="M57 119q0 114 78 271.5t195 262.5q101 91 195.5 137t170.5 46q27 0 58 -17t47 -47l147 422q32 89 36 120.5t-17 49.5l-47 33q-7 15 6 28q38 14 110 27q67 12 123 12h8l9 -12q-17 -52 -34 -100t-45.5 -126t-49.5 -136q-203 -558 -318 -949q-14 -47 12 -47q25 0 102 63 t124 122q27 0 30 -27q-44 -89 -158 -185t-190 -96q-31 0 -48 19.5t-17 46.5q0 40 26 117l72 202l-8 2q-38 -50 -62 -81t-62.5 -77t-67 -74t-68 -61t-74.5 -51t-76.5 -30.5t-83.5 -12.5q-58 0 -90.5 42t-32.5 106zM180 92q0 -18 12.5 -30.5t26.5 -12.5q33 0 108.5 43 t168.5 139q111 113 166.5 207.5t82.5 188.5q10 34 10 62q0 25 -8 44q-16 41 -55 41q-60 0 -155 -88q-64 -60 -156 -183t-137 -216q-64 -133 -64 -195z" />
<glyph unicode="e" horiz-adv-x="708" d="M90 186q0 72 28 161.5t100.5 199.5t176.5 190q128 99 246 99q57 0 93 -39.5t36 -83.5q0 -57 -35.5 -107t-104 -91.5t-155.5 -75.5t-203 -66q-28 -70 -28 -183q0 -52 28 -84t70 -32q51 0 94.5 26t120.5 93q13 0 21.5 -10.5t5.5 -24.5q-152 -187 -328 -187q-58 0 -97 34 t-54 80.5t-15 100.5zM293 434q98 30 156.5 63t117.5 89q41 39 60.5 79t19.5 60q0 19 -11 33t-36 14q-65 0 -156 -98q-91 -97 -151 -240z" />
<glyph unicode="f" horiz-adv-x="534" d="M-322 -451q0 29 14.5 54.5t33.5 38.5q24 18 47 -9q37 -38 79 -61t76 -23q18 0 31.5 5t31 21t34.5 52.5t34 93.5q46 157 130.5 498t134.5 512h-170q-15 13 -10.5 38t24.5 38h176q47 163 96.5 276t132.5 211q143 170 328 170q61 0 109.5 -38t48.5 -97q0 -38 -31 -77.5 t-57 -39.5q-24 0 -29 33q-4 78 -37.5 114t-77.5 36q-34 0 -73 -29.5t-74 -81.5q-44 -65 -80 -146.5t-56.5 -145.5t-54.5 -185h256q12 -16 7 -38t-27 -38h-254q-1 -3 -53 -190q-91 -343 -182 -652q-36 -125 -80 -208t-82 -121q-119 -111 -246 -111q-74 0 -112 34t-38 66z" />
<glyph unicode="g" horiz-adv-x="782" d="M-109 -356q0 44 26.5 86.5t64.5 72.5t89 57.5t91 43t80 28.5q-66 44 -66 95q0 40 92 157q-21 5 -41 14.5t-47 29.5t-44 56.5t-17 84.5q0 87 45 182t121 162q143 123 303 123q10 0 65 -19q9 -3 20.5 -8t18 -7.5t10.5 -2.5q52 0 99 12q62 16 92 16q43 0 43 -51 q0 -32 -13.5 -47.5t-31.5 -15.5q-23 0 -68 10q-36 12 -75 12q-8 0 -14 -4t-5 -8q14 -56 14 -78q0 -119 -74 -229t-186 -180q-45 -27 -145 -54q-18 -10 -31.5 -29.5t-13.5 -41.5q0 -53 67 -97q8 -6 201 -123q85 -50 119.5 -97.5t34.5 -100.5q0 -95 -133 -169.5t-367 -74.5 q-80 0 -151 19.5t-122 65t-51 110.5zM33 -326q0 -69 83 -113t193 -44q38 0 82.5 8.5t88 24t72 43.5t28.5 63q0 65 -88 125q-146 96 -191 102q-5 1 -11 1q-33 0 -78 -20q-53 -22 -101 -57q-78 -58 -78 -133zM242 315q0 -31 18 -51t43 -20q68 0 135 80q80 94 133.5 210.5 t53.5 172.5q0 31 -18.5 50t-43.5 19q-61 0 -137 -84q-67 -76 -125.5 -190t-58.5 -187z" />
<glyph unicode="h" horiz-adv-x="972" d="M67 -4q-1 4 -1 11q0 8 2 18l389 1151q1 2 2 6q20 59 27 81.5t11 47t-0.5 33.5t-17.5 18l-43 29q-6 16 6 26q27 11 108 27.5t132 19.5l8 -12q-30 -86 -147 -418l-211 -612l4 -4q66 94 132 166.5t104.5 104.5t86.5 67q112 80 195 80q63 0 93 -39t30 -99q0 -98 -48 -232 t-112 -247q-44 -79 -133 -168q-80 -80 -149 -80q-31 0 -49.5 12.5t-22.5 24t-4 23.5q0 26 17 45.5t38 19.5q14 0 29 -12q36 -27 53 -27q22 0 40 23t42 80q49 118 98 284.5t49 243.5q0 62 -43 62q-40 0 -110 -56q-68 -52 -125.5 -112t-134.5 -160q-97 -130 -248 -426 q-12 -25 -37 -25q-11 0 -21.5 2t-23 7.5t-15.5 15.5z" />
<glyph unicode="i" horiz-adv-x="569" d="M106 45l261 621q17 39 -5 39q-8 0 -26.5 -9t-57 -35t-85.5 -65q-13 1 -21.5 12t-5.5 23q79 90 180 147.5t158 57.5q12 0 33 -21q7 -7 7 -21q0 -24 -20 -69l-243 -582q-7 -15 -6 -30t12 -15q27 0 94.5 47t118.5 105q30 -3 30 -35q-12 -23 -53.5 -63t-96 -81t-119.5 -70.5 t-114 -29.5q-16 0 -32 19q-14 16 -14 33q0 11 5 22zM432 1128q0 26 10 54t36 51.5t63 23.5q34 0 51.5 -21t17.5 -56q0 -49 -31 -88t-75 -39q-37 0 -54.5 22.5t-17.5 52.5z" />
<glyph unicode="j" horiz-adv-x="530" d="M-287 -440q0 28 19 54t47 26q13 0 24 -21q24 -40 56.5 -64t60.5 -24q30 0 54 22.5t49 79.5q18 42 39 100t37.5 106t41 124.5t36.5 114.5t37 119t30 98q22 73 53.5 174.5t45 148.5t15.5 64q1 12 -4 19.5t-12 7.5q-56 0 -203 -158q-12 1 -21.5 12t-11.5 23q41 70 155 160 t202 90q20 0 35.5 -18.5t15.5 -41.5q0 -8 -2 -20.5t-6.5 -31t-8.5 -36.5t-12 -45t-13.5 -47t-15.5 -53t-16 -52.5t-17.5 -56t-16.5 -53.5q-9 -27 -38 -122.5t-49.5 -161.5t-49.5 -151t-50 -139q-147 -358 -369 -358q-67 0 -102 35.5t-35 75.5zM414 1128q0 26 9.5 54 t35.5 51.5t63 23.5q34 0 52 -21t18 -56q0 -49 -31.5 -88t-75.5 -39q-37 0 -54 22.5t-17 52.5z" />
<glyph unicode="k" horiz-adv-x="917" d="M82 25l375 1130q35 107 37.5 140.5t-23.5 45.5l-37 19q-21 14 -4 31q94 45 250 73l12 -10q-22 -79 -100 -301l-211 -606h4q91 123 209 211q108 78 221 78q80 0 114 -35.5t34 -77.5q0 -73 -84 -150q-80 -73 -158 -118.5t-170 -61.5q-16 -9 -6 -39q27 -101 76 -192 q38 -68 65 -68q45 0 123 96q27 0 27 -24q-25 -54 -57.5 -95t-61.5 -61t-51 -29.5t-37 -9.5q-27 0 -47.5 19t-46.5 63q-19 34 -50.5 106t-44.5 113q-21 69 -63 69q-6 0 -12 -1q-31 -7 -44 -21.5t-32 -60.5l-107 -260q-12 -27 -35 -27q-16 0 -31 3q-16 2 -28 16q-8 9 -9 21 q0 6 3 14zM350 396q3 -7 15 -8q4 0 8 1q41 4 123 37t178 96q61 41 96 89t35 83q0 21 -16.5 37.5t-49.5 16.5q-73 0 -198 -105q-57 -47 -113 -113t-76 -110q-4 -9 -4 -16q0 -4 2 -8z" />
<glyph unicode="l" horiz-adv-x="503" d="M96 33q0 40 45 174l326 969q23 68 27 106.5t-3.5 51t-25.5 20.5l-37 16q-8 6 -8 17t8 16q40 15 118 35.5t140 25.5l10 -12q-38 -104 -121 -352l-323 -967q-8 -24 -10 -38.5t2.5 -21.5t15.5 -7q53 0 236 206q32 3 32 -28q-23 -43 -54.5 -86.5t-76.5 -87.5t-103 -71.5 t-118 -27.5q-80 0 -80 62z" />
<glyph unicode="m" horiz-adv-x="1492" d="M127 25q17 46 122.5 335.5t110.5 309.5q6 20 6 33q0 24 -20 24q-47 0 -95.5 -34t-84.5 -79q-14 0 -22.5 9t-6.5 22q42 81 124.5 136t191.5 55q35 0 49 -24t0 -60l-142 -371l7 -4q121 199 253 329t242 130q42 0 66 -18q26 -18 32 -46q4 -16 3 -35q1 -13 -1 -29 q-4 -38 -14.5 -70.5t-25.5 -68.5l-78 -188l6 -4q148 235 267 347t220 112q57 0 86 -29.5t29 -81.5q0 -57 -33 -143q-16 -45 -62 -154t-86.5 -202t-41.5 -97q-16 -39 4 -39q27 0 88 43.5t104 95.5q33 5 33 -28q-57 -97 -161.5 -163.5t-190.5 -66.5q-14 0 -31.5 17t-17.5 35 q0 19 49 135q86 199 166 403q43 114 43 150q0 15 -1.5 24t-9 17t-22.5 8q-74 0 -268 -246q-72 -90 -142.5 -206t-179.5 -312q-16 -25 -37 -25q-16 0 -30.5 3t-25.5 16.5t-3 34.5l203 536q1 3 7.5 18t12.5 31.5t13 38t10.5 40.5t3.5 35.5t-8 26t-23 9.5q-41 0 -118.5 -68.5 t-166.5 -177.5q-47 -59 -99 -143t-81 -137t-104 -195q-15 -28 -23 -43q-14 -25 -37 -25q-16 0 -30 3q-15 2 -26 16q-6 8 -6 19q0 7 3 16z" />
<glyph unicode="n" horiz-adv-x="1026" d="M123 25q212 571 237 645q17 47 -6 47q-67 0 -186 -103q-12 0 -19.5 9.5t-5.5 21.5q60 82 145.5 136.5t160.5 54.5q37 0 52 -24.5t1 -59.5l-140 -359l7 -4q78 119 160 215t175 164t166 68q115 0 115 -111q0 -46 -33 -143q-16 -45 -62 -154t-86.5 -202t-41.5 -97 q-16 -39 4 -39q27 0 88 43.5t104 95.5q33 5 33 -28q-57 -97 -161.5 -163.5t-190.5 -66.5q-14 0 -31.5 17t-17.5 35q0 19 49 135q16 36 77.5 190.5t88.5 212.5q43 99 43 150q0 15 -1.5 24t-9 17t-22.5 8q-37 0 -118 -69.5t-165 -174.5q-48 -59 -100 -142t-82.5 -138 t-104.5 -192q-17 -32 -26 -48q-14 -25 -37 -25q-16 0 -30 3q-15 2 -26 16q-6 8 -6 19q0 7 3 16z" />
<glyph unicode="o" horiz-adv-x="831" d="M96 244q7 104 66 234t157 224q139 134 283 134q106 0 160 -71q49 -64 49 -164v-23q-5 -100 -59 -229t-158 -236q-138 -142 -293 -142q-101 0 -157 72q-49 62 -49 167q0 16 1 34zM233 164v-13q0 -47 19 -81q22 -38 65 -37q83 0 162 106q65 88 126.5 251.5t64.5 248.5v12 q0 123 -82 123q-78 0 -150 -98q-83 -112 -141.5 -266.5t-63.5 -245.5z" />
<glyph unicode="p" horiz-adv-x="917" d="M-218 -528.5q0 13.5 11 22.5l45 8q17 3 31.5 7.5t25.5 8t21 11t16.5 11t14 15t11 15.5t9.5 18.5t8 19t8.5 23t8.5 23.5l381 1069q-85 -23 -207 -84q-12 2 -18.5 14t-2.5 25q101 72 254 113l62 165q12 10 34 10q14 0 31 -4q46 -11 52 -34l-43 -125q5 0 30 2t47 2 q32 0 65.5 -5.5t73 -21t69.5 -40.5t50.5 -68t20.5 -99q0 -258 -270 -485q-58 -49 -132.5 -78t-109 -34t-51.5 -5t-64 13q-24 -6 -33 -37l-84 -242q-29 -83 -35 -118t5 -49t47 -19l84 -13q8 -10 6.5 -24.5t-14.5 -20.5q-36 0 -447 -12q-11 9 -11 22.5zM305 143q-6 -16 -6 -29 q0 -15 8 -26q10 -17 31.5 -32t44.5 -15q13 0 35.5 7.5t55 23.5t70 51.5t68.5 83.5q121 188 121 385q0 73 -46 113t-116 40q-25 0 -53 -4z" />
<glyph unicode="q" horiz-adv-x="952" d="M74 125q0 156 102 326q61 103 143.5 187.5t169.5 131.5q124 66 234 66q40 0 71 -33t40 -80q73 119 110 166q4 1 9 1q11 0 21 -5q16 -7 17 -21q-9 -27 -23 -72t-43.5 -140.5t-58.5 -190.5l-245 -787q-23 -71 -23 -104q0 -5 1 -9q4 -31 44 -34l68 -6q8 -9 5.5 -24 t-14.5 -21q-55 -3 -198.5 -22.5t-243.5 -37.5q-12 6 -14.5 22t6.5 25l94 29q61 19 83 49t48 111l236 731h-4q-34 -49 -70 -95.5t-92 -107t-109 -104t-117.5 -74.5t-121.5 -31q-62 0 -93.5 45.5t-31.5 108.5zM221 121q0 -26 12 -42t33 -16q53 0 172 99q70 60 142.5 141 t115.5 154q58 103 58 200q0 38 -20.5 77.5t-53.5 39.5q-69 0 -160 -82q-103 -95 -201 -278.5t-98 -292.5z" />
<glyph unicode="r" horiz-adv-x="698" d="M129 25q3 9 50.5 146t92 273.5t68.5 225.5q11 43 -16 43q-65 0 -146 -107q-15 -3 -24.5 6t-8.5 27q117 197 242 197q36 0 53 -21.5t15.5 -56.5t-7 -62t-14.5 -55l-88 -258h10q46 87 110.5 191t104.5 155q82 107 150 107q33 0 53 -20t24.5 -40t4.5 -41q0 -25 -12.5 -62 t-30.5 -61q-13 -16 -26.5 -21t-24.5 3t-15 29q-15 79 -43 79q-25 0 -71 -61q-58 -75 -125.5 -194.5t-109 -205.5t-114.5 -245q-13 -25 -34 -25q-15 0 -31.5 3.5t-29.5 16.5q-9 9 -9 22q0 5 2 12z" />
<glyph unicode="s" horiz-adv-x="536" d="M8 80q0 33 31 67q12 11 27.5 11t27.5 -11q25 -29 65.5 -55t76.5 -26q38 0 68 34t30 82q0 58 -76 180q-72 117 -72 191q0 60 28.5 109t94.5 106q40 34 83 51t69 17q53 0 88 -37.5t35 -79.5q0 -45 -37 -64q-22 -6 -39 17q-24 24 -35 34t-35.5 20.5t-54.5 10.5 q-40 0 -62 -27t-22 -55q0 -35 14 -75t56 -111q32 -53 45 -79q14 -27 24 -66q9 -33 8 -68v-14q-4 -108 -106 -197q-83 -74 -207 -74q-55 0 -90 35t-35 74z" />
<glyph unicode="t" horiz-adv-x="581" d="M111 27q0 31 28 116l193 566h-160q-3 16 3 33.5t20 23.5l163 29l115 202q11 7 28 7q7 0 13 -1q26 -3 37 -18l-59 -201h223q6 -9 6 -21q0 -9 -3 -19q-8 -25 -28 -35h-223l-184 -539q-16 -51 14 -51q23 0 102.5 62.5t130.5 121.5q35 0 29 -37q-82 -121 -203 -208t-190 -87 q-21 0 -38 18t-17 38z" />
<glyph unicode="u" horiz-adv-x="1015" d="M119 592q44 68 165.5 156t188.5 88q24 0 47 -19t15 -43l-230 -598q-10 -28 -11 -44q0 -26 25 -26q47 0 220 170q53 52 100.5 112.5t88.5 126.5t66.5 111t60.5 112.5t44 84.5q11 2 21 2q21 0 42 -8q31 -12 37 -31q-5 -14 -48.5 -126t-98 -256t-92.5 -252q-19 -52 8 -52 t92 53.5t109 106.5q15 3 25.5 -4t11.5 -25q-43 -79 -162 -169.5t-197 -90.5q-25 0 -42.5 24t-8.5 48l139 375l-4 2q-80 -101 -173 -199.5t-190 -174t-149 -75.5q-60 -1 -74 53q-5 17 -5 37q0 39 20 84l188 498q10 30 10 44.5t-10 14.5q-27 0 -88.5 -47.5t-105.5 -93.5 q-15 -3 -26 7t-9 24z" />
<glyph unicode="v" horiz-adv-x="872" d="M125 608q61 85 151.5 156.5t172.5 71.5q38 0 61 -41q12 -21 12 -46q0 -23 -10 -49l-176 -456q-21 -61 -21 -97q0 -30 15 -51.5t45 -21.5q38 0 98 38.5t125 112.5q84 95 130 204t46 187q0 86 -18 146q3 32 24.5 53t50.5 21q44 0 62 -38.5t18 -88.5q0 -115 -100 -297.5 t-229 -290.5q-103 -85 -185.5 -117.5t-134.5 -32.5q-39 0 -66.5 38t-27.5 85q0 65 51 197l141 366q8 23 8 37q0 23 -22 23q-28 0 -83.5 -43.5t-106.5 -100.5q-13 0 -23 11.5t-8 23.5z" />
<glyph unicode="w" horiz-adv-x="1345" d="M127 608q58 85 148 156.5t176 71.5q38 0 60 -41q11 -21 11 -45q0 -23 -10 -50l-162 -428q-39 -100 -39 -145q0 -49 45 -49q42 0 108.5 57.5t118.5 123t95 130.5q52 79 86.5 174t46.5 154q10 49 38.5 79.5t57.5 30.5q32 0 47 -19t15 -38q0 -9 -1 -18t-5 -20t-7 -19.5 t-10.5 -25l-12.5 -27.5t-16.5 -34.5t-19.5 -39.5q-54 -111 -82.5 -221.5t-28.5 -196.5q0 -90 76 -90q48 0 120.5 54.5t133.5 141.5q127 183 127 342q0 86 -18 146q3 32 24.5 53t50.5 21q44 0 62 -38.5t18 -88.5q0 -94 -55.5 -224t-167.5 -264q-101 -123 -210.5 -186.5 t-180.5 -63.5q-35 0 -75 36.5t-40 80.5q0 58 35 174q8 25 -2 24q-10 -4 -27 -26q-82 -112 -193 -200.5t-196 -88.5q-41 0 -72.5 36t-31.5 75q0 49 35 149l153 410q7 19 10.5 32t4 23.5t-4.5 15.5t-16 5q-30 0 -85.5 -43.5t-102.5 -100.5q-13 0 -23 11.5t-8 23.5z" />
<glyph unicode="x" horiz-adv-x="860" d="M-18 45q0 31 16 66t43 57q25 22 45 22q6 0 12 -8.5t8 -17.5q13 -58 37 -58q21 0 82 64q26 28 176 205l-86 221q-32 77 -42 88q-7 8 -15 8q-10 0 -20 -6.5t-20 -19t-17.5 -23.5t-18.5 -29t-16 -26q-15 -8 -26.5 0t-10.5 28q27 83 86 151.5t98 68.5q27 0 47.5 -24.5 t42.5 -82.5l89 -240q7 8 19.5 23.5t44 54t75.5 90.5q80 95 132 137t99 42q39 0 60.5 -29t21.5 -68q0 -50 -27.5 -84t-54.5 -34q-19 0 -28 34q-14 52 -43 52q-28 0 -83 -56t-194 -225l76 -195q25 -62 41 -89t33 -27q10 0 21.5 9t26 31t23 36t25.5 45q11 12 27.5 7t15.5 -20 q-23 -105 -72.5 -178.5t-105.5 -73.5q-38 0 -64.5 35t-56.5 109l-78 194q-19 -19 -74 -85.5t-76 -90.5q-136 -162 -221 -162q-35 0 -54 22t-19 52z" />
<glyph unicode="y" horiz-adv-x="749" d="M-205 -457q0 38 24 63t58 25q33 0 55 -32q22 -37 58 -37q44 0 112 57q44 37 99 125.5t82 181.5q21 76 32 204q9 108 9 222v41q-1 82 -8 143t-18 96t-24 51.5t-28 16.5q-19 0 -40.5 -23.5t-36.5 -50t-42 -81.5q-31 -8 -39 26q35 110 99 187.5t135 77.5q114 0 124 -349v-52 q0 -221 -30 -398h8q96 142 172 352q29 80 51.5 204t24.5 175q4 63 49 63q28 0 57 -18q19 -13 19 -45q0 -62 -58 -238q-60 -181 -180 -383q-6 -10 -32 -54.5t-33 -56t-30 -50t-33.5 -54t-33 -50t-39 -55.5t-39.5 -52t-47 -60t-51 -59q-181 -207 -319 -207q-48 0 -77.5 27 t-29.5 67z" />
<glyph unicode="z" horiz-adv-x="831" d="M4 29q0 22 24.5 51.5t94.5 93.5q191 173 498 463q16 18 10.5 27t-35.5 18q-124 41 -234 41q-27 0 -45.5 -8.5t-27 -21.5t-12 -23.5t-3.5 -20.5q0 -45 33 -78q0 -20 -18.5 -38.5t-52.5 -18.5q-36 0 -56 23t-20 53q0 62 92 147q92 82 213 82q57 0 131 -20q8 -3 34.5 -11 t40.5 -12t35.5 -8t38.5 -4q13 0 25 2.5t21 5t18.5 8.5t15 10t13.5 12.5t10.5 11.5t9.5 12t8 10q4 1 9 1q17 -1 30 -11q13 -11 13 -25v-6q-17 -16 -152 -136t-268.5 -244t-247.5 -241l2 -6q18 1 36 -0.5t32.5 -4t34 -8.5t31 -9.5t32.5 -12.5t29.5 -12.5t31.5 -14.5t29 -14 q88 -39 129 -39q35 0 64.5 27t29.5 67q0 32 -20 99q-10 26 0 39.5t20 17.5t21 4q40 0 64 -33t24 -71q0 -41 -29.5 -90.5t-77.5 -87.5q-92 -72 -164 -72q-13 0 -29.5 3t-28.5 6t-31.5 10t-27 10t-28.5 12t-23 10q-21 9 -55.5 25t-55 25t-45 16.5t-42.5 7.5q-50 0 -76.5 -25.5 t-42.5 -81.5q-32 -3 -51.5 7.5t-24 23t-4.5 27.5z" />
<glyph unicode="{" horiz-adv-x="655" d="M176 -162q0 20 4.5 45t9 44t16.5 53t18 49.5t23.5 59t22.5 56.5t22.5 55.5t23 57t17.5 47.5t16.5 50.5t8.5 41.5t4 43q0 44 -36 62.5t-103 23.5q-11 30 10 45q53 3 93.5 16t62.5 27.5t39 39t22 38.5t13 39q22 71 49 211q27 144 49 225q73 254 361 254q4 -23 -13 -37 q-193 -33 -231 -200q-26 -112 -43 -209q-24 -145 -43 -211q-50 -172 -215 -211l-2 -8q104 -25 104 -142q0 -23 -13 -65.5t-26 -74.5t-34.5 -82t-24.5 -58q-2 -5 -19 -43.5t-25.5 -60t-22 -56.5t-19.5 -62.5t-6 -47.5q0 -62 32 -95.5t93 -46.5q4 -26 -11 -35q-48 0 -85 6.5 t-71 23t-52.5 50t-18.5 82.5z" />
<glyph unicode="|" horiz-adv-x="532" d="M287 -512v2048h121v-2048h-121z" />
<glyph unicode="}" horiz-adv-x="655" d="M-80 -324q-4 24 12 37q194 33 232 201q26 112 43 209q24 145 43 211q50 172 215 211l2 8q-105 25 -105 141q0 23 13 65t26.5 75t34.5 82.5t25 58.5q2 5 19 43.5t25.5 60t22 56.5t19.5 62.5t6 47.5q0 62 -31.5 95t-93.5 46q-4 26 10 35q48 0 85 -6.5t71.5 -22.5t53 -49.5 t18.5 -82.5q0 -20 -4.5 -45t-9.5 -44.5t-16.5 -52.5t-18.5 -50.5t-23.5 -58.5t-22.5 -57q-5 -13 -22.5 -55.5t-23 -57t-17.5 -47.5t-16.5 -50.5t-8.5 -41.5t-4 -43q0 -44 36 -62.5t103 -23.5q11 -30 -10 -45q-45 -3 -80 -11t-58.5 -23t-39 -27.5t-26 -33.5t-15 -32 t-10.5 -32q-22 -71 -49 -211q-27 -147 -49 -226q-19 -67 -54 -117t-72.5 -76t-83.5 -41t-80.5 -18t-70.5 -2z" />
<glyph unicode="~" horiz-adv-x="1146" d="M238 264q44 113 92 164q43 43 116 43h254q76 0 109.5 26t73.5 107q20 9 40.5 1t26.5 -30q-49 -126 -94 -167q-42 -37 -115 -37h-254q-76 0 -108.5 -26.5t-73.5 -108.5q-20 -9 -40.5 -1.5t-26.5 29.5z" />
<glyph unicode="&#xa1;" horiz-adv-x="421" d="M-115 -479q4 11 11 29.5t24 60t33 82.5l254 665q6 12 25 12t28 -12l-141 -661q-29 -138 -41 -178t-33.5 -52t-75.5 -12q-57 0 -75.5 17t-8.5 49zM219 680q0 54 35.5 90.5t81.5 36.5q42 0 66 -27t24 -65q0 -59 -35 -95t-82 -36q-42 0 -66 25.5t-24 70.5z" />
<glyph unicode="&#xa2;" d="M246 563q0 107 45 201.5t119.5 160t172.5 106t203 46.5l52 176q15 7 40.5 7t39.5 -7l-52 -174q131 -8 203 -53q23 -25 10 -78q-7 -23 -24 -46t-31 -23q-10 0 -14 6q-67 99 -164 123l-209 -711q59 -20 154 16t145 88q11 0 19.5 -10t5.5 -22q-46 -63 -140.5 -107.5 t-208.5 -44.5l-61 -209q-14 -16 -41.5 -15t-38.5 15l64 215q-144 22 -216.5 116.5t-72.5 223.5zM403 600q0 -231 160 -285l205 699q-153 -9 -259 -133.5t-106 -280.5z" />
<glyph unicode="&#xa3;" d="M2 8q9 47 129 133q169 119 242 447q5 17 0.5 22.5t-27.5 5.5h-168q-10 9 -4 33t21 33h165q21 0 26 3t5 15q7 44 25 121q48 221 179.5 355.5t303.5 134.5q99 0 150 -51q16 -19 16 -37q1 -32 -26.5 -64.5t-45.5 -32.5q-8 0 -26 15q-88 84 -168 84q-139 0 -203 -287 q-9 -43 -20.5 -119.5t-16.5 -105.5q-3 -20 4 -25.5t31 -5.5h301q11 -9 5 -34t-21 -32h-299q-28 0 -37 -4.5t-13 -23.5q-31 -147 -105 -246t-185 -178v-4q79 10 163 -2q42 -6 168 -64q108 -53 185 -53q93 0 104 147q3 43 14.5 59.5t34.5 16.5q36 0 56.5 -30.5t11.5 -71.5 q-18 -77 -128 -150t-224 -73q-97 0 -226 79q-123 76 -192 76q-70 0 -88 -67q-4 -20 -36 -38t-52 -18t-26 9t-3 28z" />
<glyph unicode="&#xa4;" d="M186 641q0 156 90 270l-88 93q4 31 33 59t64 39l77 -105q111 82 244 82q136 0 244 -82l80 105q35 -11 63 -39t31 -59l-86 -93q88 -115 88 -270t-88 -270l86 -92q-3 -31 -31 -59.5t-63 -39.5l-80 105q-108 -82 -244 -82q-133 0 -244 82l-77 -105q-35 11 -64 39.5t-33 59.5 l88 92q-90 114 -90 270zM303 641q0 -145 91 -244.5t212 -99.5t212 100t91 244q0 141 -91.5 242.5t-211.5 101.5q-122 0 -212.5 -101.5t-90.5 -242.5z" />
<glyph unicode="&#xa5;" d="M152.5 466.5q5.5 22.5 19.5 31.5h311l49 166h-311q-7 11 -2 34t19 31h282l-110 336q-32 97 -52.5 128t-66.5 44l-43 12q-8 10 -6 24.5t14 18.5q105 -6 211 -6q125 0 199 6q12 -7 12.5 -21.5t-10.5 -21.5l-88 -18q-44 -9 -51 -29.5t10 -75.5l75 -262q24 -91 41 -108 q15 11 86 90l205 237q89 103 75 133q-6 12 -28 17l-61 16q-8 10 -6 23t14 20q117 -6 201 -6q71 0 162 6q26 -20 6 -43l-58 -14q-31 -8 -62 -26t-66 -51t-52.5 -50.5t-54.5 -58.5l-295 -320h303q9 -13 4.5 -35t-20.5 -30h-330l-53 -166h315q8 -13 3 -35t-21 -31h-320 l-59 -201q-33 -104 -22.5 -139t87.5 -45l60 -8q8 -10 6 -23t-12 -22q-126 6 -242 6q-134 0 -242 -6q-9 9 -8.5 23.5t12.5 21.5l54 8q85 12 114.5 44t61.5 147l55 194h-313q-7 12 -1.5 34.5z" />
<glyph unicode="&#xa6;" horiz-adv-x="532" d="M287 -358v716h121v-716h-121zM287 666v716h121v-716h-121z" />
<glyph unicode="&#xa7;" horiz-adv-x="942" d="M14 -113q0 30 25.5 36.5t48.5 -13.5q99 -78 193 -78q78 0 131 44.5t53 127.5q0 65 -22.5 150t-84.5 233q-108 252 -108 373q0 134 106 283.5t260 256.5q105 73 175 100t104 27q58 0 101.5 -39t43.5 -94q0 -80 -55 -80q-13 0 -29 31q-47 86 -131 86t-135 -48.5t-51 -125.5 q0 -129 94 -360q9 -23 28.5 -70.5t26.5 -65.5t21 -54.5t19.5 -53t14 -44.5t11.5 -46.5t5.5 -41t2.5 -44.5q0 -114 -61.5 -207t-186.5 -207q-254 -235 -421 -235q-74 0 -126.5 45t-52.5 114zM373 850q0 -87 20.5 -167t73.5 -204q106 -253 108 -327q3 -70 -6 -142l4 -4 q58 52 108 139t50 183q0 17 -3.5 47.5t-23.5 107t-53 158.5q-115 285 -121 340q-7 104 15 182l-2 4q-59 -53 -114.5 -142.5t-55.5 -174.5z" />
<glyph unicode="&#xa8;" horiz-adv-x="737" d="M381 1128q0 48 29 79.5t69 31.5q35 0 55.5 -23.5t20.5 -54.5q0 -51 -29 -80.5t-69 -29.5q-35 0 -55.5 21t-20.5 56zM698 1128q0 48 30 79.5t69 31.5q35 0 55 -23.5t20 -54.5q0 -51 -29 -80.5t-69 -29.5q-35 0 -55.5 21t-20.5 56z" />
<glyph unicode="&#xa9;" horiz-adv-x="1689" d="M248 676q0 145 54.5 275.5t149 225.5t228.5 151t285 56t285 -56t228 -151t148.5 -225.5t54.5 -275.5t-54.5 -275.5t-148.5 -226t-228 -151.5t-285 -56q-202 0 -367 95.5t-257.5 257.5t-92.5 356zM365 678q0 -175 78.5 -319.5t216.5 -228t305 -83.5t305 83.5t216.5 228 t78.5 319.5q0 174 -78.5 317.5t-216.5 226.5t-305 83t-305 -83t-216.5 -226.5t-78.5 -317.5zM575 672q0 182 131.5 296.5t327.5 114.5q50 0 104 -7.5t94.5 -15.5t49.5 -9q4 -27 8 -56.5t8.5 -68.5t8.5 -66q-6 -10 -21 -12t-22 6q-55 174 -242 174q-140 0 -216.5 -97.5 t-76.5 -246.5q0 -161 84 -259.5t221 -98.5q167 0 252 194q9 8 22 6t19 -12q-3 -42 -20 -104t-35 -93q-153 -47 -250 -47q-109 0 -197 34.5t-141 92t-81 128t-28 147.5z" />
<glyph unicode="&#xaa;" horiz-adv-x="745" d="M141 573q0 34 35.5 114.5t104.5 168.5q106 134 208 188q81 41 154 41q49 0 70 -38l45 94q20 7 49.5 -1t38.5 -22q-25 -53 -102.5 -236t-110.5 -272q-11 -35 12 -35q48 0 160 99q24 0 24 -25q-48 -62 -126.5 -109.5t-149.5 -47.5q-23 0 -34 13t-11 25q0 14 16 58l45 117 l-2 -3l-4 5q-78 -87 -179 -151t-161 -64q-39 0 -60.5 24t-21.5 57zM287 600q0 -12 6.5 -19.5t15.5 -7.5q38 0 146 95q67 58 131.5 152t83.5 159q-19 51 -74 51q-29 0 -53 -12t-60 -43q-75 -62 -135.5 -180t-60.5 -195z" />
<glyph unicode="&#xab;" horiz-adv-x="819" d="M152 421q2 12 22 32q53 53 157.5 155t153.5 152q10 1 18.5 -7t10.5 -20l-205 -287q-17 -23 -10 -49l82 -297q-4 -11 -16.5 -17t-22.5 -3q-103 185 -180 309q-12 20 -10 32zM439 421q2 12 22 32q53 53 157.5 155t153.5 152q10 1 18.5 -7t10.5 -20l-205 -287 q-17 -23 -10 -49l82 -297q-4 -11 -16.5 -17t-22.5 -3q-103 184 -180 309q-12 20 -10 32z" />
<glyph unicode="&#xac;" horiz-adv-x="1146" d="M182 524v101h889v-523h-121v422h-768z" />
<glyph unicode="&#xad;" horiz-adv-x="655" d="M111.5 413q5.5 39 25.5 58l498 45q15 -20 9.5 -59t-26.5 -58l-497 -45q-15 20 -9.5 59z" />
<glyph unicode="&#xae;" horiz-adv-x="634" d="M307 1126q0 107 78 183.5t188 76.5t188.5 -76.5t78.5 -183.5t-78.5 -183.5t-188.5 -76.5t-188 76.5t-78 183.5zM371 1126q0 -89 59.5 -152t142.5 -63t143 63t60 152q0 90 -59.5 152.5t-143.5 62.5t-143 -62.5t-59 -152.5zM454.5 1014q-0.5 9 2.5 10l8 2q16 4 19 10.5 t3 32.5v117q0 38 -22 41h-8q-9 18 2 22q86 4 114 4q103 0 103 -69q0 -20 -11.5 -35.5t-25.5 -22.5q-6 -3 0 -14q32 -68 51 -82q14 -10 19 -12q3 0 3 -6t-3 -8q-15 -3 -29 -3q-51 0 -76 43q-1 2 -29 52q-6 12 -18 12t-12 -10v-29q0 -19 1 -25t7 -11t20 -7l7 -2q3 -2 3 -10 t-3 -10q-9 0 -29 1t-33 1q-12 0 -31.5 -1t-27.5 -1q-4 1 -4.5 10zM545 1147q0 -10 3.5 -12t20.5 -2q22 0 31.5 12.5t9.5 28.5q0 24 -10.5 37.5t-28.5 13.5q-17 0 -21.5 -3.5t-4.5 -13.5v-61z" />
<glyph unicode="&#xaf;" horiz-adv-x="737" d="M444 1100q0 28 15 47h379q14 -19 14 -47t-14 -47h-379q-15 19 -15 47z" />
<glyph unicode="&#xb0;" horiz-adv-x="819" d="M342 1047q0 117 79.5 190.5t194.5 73.5t195 -73.5t80 -190.5q0 -122 -79 -193.5t-196 -71.5t-195.5 71.5t-78.5 193.5zM457 1047q0 -86 45 -139.5t114 -53.5t114.5 53.5t45.5 139.5t-45.5 139t-114.5 53t-114 -53t-45 -139z" />
<glyph unicode="&#xb1;" horiz-adv-x="1146" d="M242 0v100h788v-100h-788zM242 510v100h336v324h120v-324h332v-100h-332v-338h-120v338h-336z" />
<glyph unicode="&#xb2;" horiz-adv-x="737" d="M156 672q103 61 256 184q6 5 40 31.5t46 37t44 37t46.5 42.5t39.5 42.5t37.5 47.5t27 47t20.5 52t6 52q0 56 -36.5 91.5t-96.5 35.5q-96 0 -193 -119q-10 -4 -20.5 2.5t-12.5 18.5q43 79 119.5 127.5t163.5 48.5q99 0 161 -52.5t62 -140.5q0 -44 -17 -84t-53.5 -79.5 t-72 -69t-92.5 -72.5l-103 -75q-58 -43 -89 -70t-38.5 -36.5t-7.5 -16.5q0 -11 37 -11h127q77 0 116 13.5t70 58.5q7 6 24 4.5t21 -10.5q-27 -43 -88 -168q-66 4 -208 4h-177q-103 0 -153 -4q-18 12 -6 31z" />
<glyph unicode="&#xb3;" horiz-adv-x="737" d="M178 649q0 24 18.5 43t45.5 19q40 0 69 -56q18 -37 62 -37q125 0 217 90.5t92 211.5q0 64 -39.5 102.5t-103.5 38.5q-71 0 -146 -60q-40 17 -16 64q3 1 58 20.5t94 36.5t89.5 44.5t78.5 61.5t28 70q0 41 -28.5 62.5t-69.5 21.5q-51 0 -106 -34.5t-93 -85.5 q-13 -1 -22 6.5t-9 19.5q42 70 118 116t163 46q79 0 129.5 -39.5t50.5 -101.5q0 -32 -19 -60.5t-51.5 -49.5t-63 -35.5t-65.5 -26.5q-16 -14 13 -21q65 -16 113.5 -62t48.5 -118q0 -85 -49.5 -157.5t-126 -118t-164 -70.5t-168.5 -25q-70 0 -109.5 21t-38.5 63z" />
<glyph unicode="&#xb4;" horiz-adv-x="737" d="M592 965l192 292q27 44 50 41q27 0 57 -30t27 -54q0 -22 -35 -49l-258 -227q-11 0 -22 8.5t-11 18.5z" />
<glyph unicode="&#xb5;" horiz-adv-x="1015" d="M-79 -533.5q-8 17.5 3 46.5q34 93 139 373.5t179.5 482.5t165.5 454q3 13 34 13q37 0 68.5 -17t26.5 -33l-238 -610q-12 -37 -5.5 -53.5t25.5 -16.5q48 0 218 170q52 52 99.5 111.5t90 128.5t66.5 110t62 114t44 83q32 6 63 -6t37 -31q-5 -14 -48.5 -126t-98 -256 t-92.5 -252q-19 -52 8 -52t92 53.5t109 106.5q15 3 25.5 -4t11.5 -25q-43 -79 -162 -169.5t-197 -90.5q-25 0 -42.5 24t-8.5 48l129 350l-4 2q-121 -147 -269 -285.5t-206 -138.5q-19 0 -33 11q-21 3 -37 -45l-31 -87q-28 -77 -28 -186q0 -86 -15 -131q-12 -35 -54 -59.5 t-93 -24.5q-26 0 -34 17.5z" />
<glyph unicode="&#xb6;" d="M158 -305q0 44 23.5 72t51.5 38q33 0 60 -19t26 -42q-32 -27 -32 -66q0 -27 16.5 -42t42.5 -15q23 0 43.5 10t48 38t56.5 90.5t57 154.5l90 297q11 43 4 58.5t-33 17.5q-41 3 -86.5 17t-95 42t-88.5 65.5t-64.5 94.5t-25.5 123q0 104 48.5 196.5t133.5 151.5 q187 129 496 129q202 0 250 -10q9 -6 7.5 -23.5t-11.5 -21.5l-86 -15q-33 -5 -48.5 -8t-33 -10t-23.5 -12t-15.5 -20.5t-14 -30t-13.5 -44.5l-285 -958q-14 -46 -23 -75t-27 -75t-34.5 -75.5t-42.5 -64.5t-54 -55t-66.5 -34t-81.5 -14q-75 0 -122.5 36.5t-47.5 98.5z" />
<glyph unicode="&#xb7;" horiz-adv-x="512" d="M195 408q0 54 35 90.5t81 36.5q42 0 66 -27.5t24 -65.5q0 -59 -34.5 -95t-81.5 -36q-42 0 -66 26t-24 71z" />
<glyph unicode="&#xb8;" horiz-adv-x="737" d="M113 -379q0 17 14 33t37 16q21 0 49 -28q31 -31 43 -31q22 0 39.5 15t17.5 48q0 36 -30 70.5t-78 56.5v9l139 190h68l-74 -100q-22 -28 10 -54q76 -62 76 -133q0 -64 -66 -110.5t-143 -46.5q-50 0 -76 18t-26 47z" />
<glyph unicode="&#xb9;" horiz-adv-x="737" d="M270 660.5q0 15.5 6 19.5l37 4q61 7 81 30t44 105l119 400q18 65 16 77q3 23 -43 29l-61 10q-7 10 -5 20t9 15q154 24 258 72q20 4 23 -12q-44 -128 -49 -146l-138 -467q-25 -78 -18.5 -102.5t59.5 -30.5l39 -4q8 -6 6 -20.5t-12 -18.5q-106 4 -195 4q-96 0 -170 -4 q-6 4 -6 19.5z" />
<glyph unicode="&#xba;" horiz-adv-x="671" d="M180 684q5 78 49.5 169t114.5 153q114 100 238 100q90 0 134.5 -50.5t39.5 -133.5q-4 -70 -46 -162t-122 -168q-104 -100 -234 -100q-80 0 -130 51t-44 141zM297 629q-2 -35 17.5 -59.5t52.5 -24.5q71 0 129 80q61 81 98.5 178t40.5 158q2 44 -16.5 68t-53.5 24 q-61 0 -125 -80q-55 -68 -98 -176t-45 -168z" />
<glyph unicode="&#xbb;" horiz-adv-x="819" d="M104 106l205 287q17 23 10 49l-81 297q4 12 16.5 18t21.5 3q94 -168 181 -309q12 -20 9.5 -32t-22.5 -32q-53 -53 -157.5 -155t-153.5 -152q-10 -1 -18.5 6.5t-10.5 19.5zM391 106l205 287q17 23 10 49l-82 297q4 12 17 18t22 3q103 -185 180 -309q12 -20 10 -32t-22 -32 q-53 -53 -157.5 -155t-153.5 -152q-10 -1 -18.5 6.5t-10.5 19.5z" />
<glyph unicode="&#xbc;" horiz-adv-x="1679" d="M221 521q0 15 6 20l37 4q61 7 81 30t44 105l119 399q19 65 16 78q3 23 -43 29l-61 10q-7 10 -5 20t9 15q154 24 258 72q8 2 15 -2t8 -11q-5 -13 -14 -38t-18 -51t-18 -56l-137 -467q-25 -78 -18.5 -102.5t59.5 -30.5l39 -4q8 -6 6 -20.5t-12 -18.5q-106 4 -195 4 q-96 0 -170 -4q-6 4 -6 19zM324 -29q552 656 1140 1368q21 0 40.5 -14t19.5 -37q-567 -672 -1145 -1370q-27 0 -41 14.5t-14 38.5zM901 258q5 18 33 43l606 559q25 25 45 25q41 0 41 -11q0 -4 -8 -12l-586 -538q-19 -20 -12 -25.5t39 -5.5h190q27 0 35 5.5t14 27.5l68 227 q5 18 18 25q44 22 89 22q18 0 20 -10t-6 -29l-72 -239q-6 -19 -2.5 -24t23.5 -5h77q9 -7 5 -27.5t-19 -27.5h-69q-28 0 -35.5 -5t-12.5 -24l-20 -72q-17 -50 -12 -70.5t49 -27.5l49 -8q7 -6 4.5 -18t-10.5 -17q-140 4 -185 4q-70 0 -172 -4q-8 4 -7.5 16.5t9.5 18.5l50 8 q49 8 70.5 25.5t35.5 72.5l19 68q7 20 2.5 26.5t-31.5 6.5h-320q-8 0 -11.5 5.5t-0.5 14.5z" />
<glyph unicode="&#xbd;" horiz-adv-x="1679" d="M189 521q0 15 6 20l36 4q61 7 81 30t44 105l119 399q19 67 17 78q3 23 -43 29l-62 10q-7 10 -5 20t9 15q154 24 258 72q8 2 15 -2t8 -11q-46 -134 -49 -145l-138 -467q-25 -78 -18.5 -102.5t59.5 -30.5l39 -4q8 -6 6 -20.5t-12 -18.5q-106 4 -194 4q-96 0 -170 -4 q-6 4 -6 19zM283 -29q552 656 1140 1368q21 0 40.5 -14t19.5 -37q-567 -672 -1145 -1370q-27 0 -41 14.5t-14 38.5zM918 27q103 61 256 184q6 5 40 31.5t46 37t44 37t46.5 42.5t39.5 42.5t37.5 47.5t27 47t20.5 52t6 52q0 56 -36.5 91.5t-96.5 35.5q-96 0 -193 -119 q-10 -4 -20.5 2.5t-12.5 18.5q43 79 119.5 127.5t163.5 48.5q99 0 161 -52.5t62 -140.5q0 -44 -17 -84t-53.5 -79.5t-72 -69t-92.5 -72.5l-103 -76q-58 -44 -89 -70t-38.5 -35.5t-7.5 -16.5q0 -11 37 -11h127q77 0 116 13.5t70 58.5q7 6 24 4.5t21 -10.5q-27 -43 -88 -168 q-66 4 -209 4h-176q-103 0 -153 -4q-18 12 -6 31z" />
<glyph unicode="&#xbe;" horiz-adv-x="1679" d="M160 510q0 24 18 42.5t45 18.5q42 0 70 -55q18 -37 61 -37q125 0 217.5 90t92.5 211q0 64 -40 103t-104 39q-70 0 -145 -60q-41 18 -17 64q3 1 58 20t94 36.5t90 45t79 61.5t28 70q0 41 -29 62.5t-70 21.5q-51 0 -105.5 -34.5t-92.5 -86.5q-13 -1 -22 7t-9 20 q42 70 117.5 116t162.5 46q79 0 130 -40t51 -102q0 -32 -19 -60.5t-51.5 -49.5t-63 -35.5t-65.5 -26.5q-17 -7 1 -16q5 -2 11 -4q65 -16 113.5 -62t48.5 -118q0 -85 -49.5 -157.5t-126 -118t-164 -70.5t-168.5 -25q-69 0 -108 21t-39 63zM393 -29q600 713 1141 1368 q21 0 40 -14t19 -37q-502 -596 -1144 -1370q-27 0 -41.5 14.5t-14.5 38.5zM950 258q5 18 33 43l606 559q25 25 45 25q41 0 41 -11q0 -4 -8 -12l-586 -538q-19 -20 -12 -25.5t39 -5.5h190q28 0 36 5.5t14 27.5l67 227q4 18 19 25q44 22 88 22q18 0 20 -10t-6 -29l-72 -239 q-6 -19 -2.5 -24t23.5 -5h78q9 -7 4.5 -27.5t-19.5 -27.5h-69q-28 0 -35 -4.5t-12 -24.5l-21 -72q-17 -50 -12 -70.5t49 -27.5l49 -8q7 -6 4.5 -18t-10.5 -17q-140 4 -184 4q-70 0 -172 -4q-8 4 -7.5 16.5t9.5 18.5l49 8q49 8 70.5 25.5t35.5 72.5l19 68q7 20 2.5 26.5 t-31.5 6.5h-319q-8 0 -12 5.5t-1 14.5z" />
<glyph unicode="&#xbf;" horiz-adv-x="614" d="M-47 -254q0 98 53.5 169.5t157.5 129.5l137 76q50 28 72 58.5t22 74.5q0 46 -18 98q4 9 15 12t18 -2q36 -46 57 -103.5t6 -113.5q-24 -90 -160 -165l-127 -72q-84 -47 -125 -89.5t-41 -97.5q0 -65 43.5 -105t100.5 -40q46 0 92 23q7 4 17 10t16.5 9t11.5 3q15 0 27 -15.5 t12 -41.5q0 -43 -42 -76t-105 -33q-90 0 -165 89.5t-75 201.5zM354 680q0 54 35.5 90.5t81.5 36.5q42 0 66 -27t24 -65q0 -59 -35 -95t-82 -36q-42 0 -66 25.5t-24 70.5z" />
<glyph unicode="&#xc0;" horiz-adv-x="1220" d="M-116.5 19.5q1.5 16.5 10.5 25.5l55 6q82 8 147 86q72 91 338 461l361 508q110 154 123 211q31 4 67 21t59 32l23 14q8 0 16.5 -5t8.5 -11q0 -14 -3 -50t-8.5 -106t-9.5 -145l-41 -774q-4 -68 -5.5 -97t2 -63t7 -43t19 -20.5t30 -13t47.5 -5.5l54 -6q9 -9 6 -27t-14 -24 q-94 6 -232 6q-144 0 -235 -6q-15 6 -15.5 25.5t13.5 25.5l63 6q31 3 52 12.5t28 20.5q15 25 22 127l19 274q3 36 -4 45t-39 9h-295q-46 0 -62 -9.5t-45 -54.5l-159 -233q-92 -144 -92 -154q0 -24 47 -31l88 -12q11 -9 9 -27t-13 -24q-95 6 -209 6q-117 0 -228 -6 q-7 9 -5.5 25.5zM559.5 626.5q6.5 -5.5 40.5 -5.5h258q26 0 33 6.5t8 34.5l33 448q4 53 -4 53q-11 0 -78 -100l-285 -412q-12 -19 -5.5 -24.5zM768 1602q-12 24 12 71q10 19 23.5 29t23.5 10q20 0 47 -24l250 -201q4 -11 -2 -24.5t-16 -16.5l-295 125q-33 14 -43 31z" />
<glyph unicode="&#xc1;" horiz-adv-x="1220" d="M-116.5 19.5q1.5 16.5 10.5 25.5l55 6q82 8 147 86q72 91 338 461l361 508q110 154 123 211q31 4 67 21t59 32l23 14q8 0 16.5 -5t8.5 -11q0 -14 -3 -50t-8.5 -106t-9.5 -145l-41 -774q-4 -68 -5.5 -97t2 -63t7 -43t19 -20.5t30 -13t47.5 -5.5l54 -6q9 -9 6 -27t-14 -24 q-94 6 -232 6q-144 0 -235 -6q-15 6 -15.5 25.5t13.5 25.5l63 6q31 3 52 12.5t28 20.5q15 25 22 127l19 274q3 36 -4 45t-39 9h-295q-46 0 -62 -9.5t-45 -54.5l-159 -233q-92 -144 -92 -154q0 -24 47 -31l88 -12q11 -9 9 -27t-13 -24q-95 6 -209 6q-117 0 -228 -6 q-7 9 -5.5 25.5zM559.5 626.5q6.5 -5.5 40.5 -5.5h258q26 0 33 6.5t8 34.5l33 448q4 53 -4 53q-11 0 -78 -100l-285 -412q-12 -19 -5.5 -24.5zM948 1487l250 201q27 24 47 24q10 0 23.5 -10t23.5 -29q25 -48 13 -71q-10 -17 -43 -31l-295 -125q-10 3 -16.5 16.5t-2.5 24.5z " />
<glyph unicode="&#xc2;" horiz-adv-x="1220" d="M-116.5 19.5q1.5 16.5 10.5 25.5l55 6q82 8 147 86q72 91 338 461l361 508q110 154 123 211q31 4 67 21t59 32l23 14q8 0 16.5 -5t8.5 -11q0 -14 -3 -50t-8.5 -106t-9.5 -145l-41 -774q-4 -68 -5.5 -97t2 -63t7 -43t19 -20.5t30 -13t47.5 -5.5l54 -6q9 -9 6 -27t-14 -24 q-94 6 -232 6q-144 0 -235 -6q-15 6 -15.5 25.5t13.5 25.5l63 6q31 3 52 12.5t28 20.5q15 25 22 127l19 274q3 36 -4 45t-39 9h-295q-46 0 -62 -9.5t-45 -54.5l-159 -233q-92 -144 -92 -154q0 -24 47 -31l88 -12q11 -9 9 -27t-13 -24q-95 6 -209 6q-117 0 -228 -6 q-7 9 -5.5 25.5zM559.5 626.5q6.5 -5.5 40.5 -5.5h258q26 0 33 6.5t8 34.5l33 448q4 53 -4 53q-11 0 -78 -100l-285 -412q-12 -19 -5.5 -24.5zM770 1470l301 224q23 18 45 18q25 0 33 -18l170 -224q-1 -12 -12.5 -23t-22.5 -11l-172 127q-16 16 -29 16t-34 -12l-263 -131 q-10 0 -14.5 11.5t-1.5 22.5z" />
<glyph unicode="&#xc3;" horiz-adv-x="1220" d="M-116.5 19.5q1.5 16.5 10.5 25.5l55 6q82 8 147 86q72 91 338 461l361 508q110 154 123 211q31 4 67 21t59 32l23 14q8 0 16.5 -5t8.5 -11q0 -14 -3 -50t-8.5 -106t-9.5 -145l-41 -774q-4 -68 -5.5 -97t2 -63t7 -43t19 -20.5t30 -13t47.5 -5.5l54 -6q9 -9 6 -27t-14 -24 q-94 6 -232 6q-144 0 -235 -6q-15 6 -15.5 25.5t13.5 25.5l63 6q31 3 52 12.5t28 20.5q15 25 22 127l19 274q3 36 -4 45t-39 9h-295q-46 0 -62 -9.5t-45 -54.5l-159 -233q-92 -144 -92 -154q0 -24 47 -31l88 -12q11 -9 9 -27t-13 -24q-95 6 -209 6q-117 0 -228 -6 q-7 9 -5.5 25.5zM559.5 626.5q6.5 -5.5 40.5 -5.5h258q26 0 33 6.5t8 34.5l33 448q4 53 -4 53q-11 0 -78 -100l-285 -412q-12 -19 -5.5 -24.5zM829 1427q6 30 27.5 81.5t42.5 70.5q21 23 43.5 31t58.5 8h103q58 0 83.5 14t59.5 62q7 5 18 3t15 -11q-9 -36 -30.5 -77 t-41.5 -61q-32 -30 -92 -30h-100q-60 0 -93.5 -22.5t-62.5 -76.5q-7 -5 -17 -3t-14 11z" />
<glyph unicode="&#xc4;" horiz-adv-x="1220" d="M-116.5 19.5q1.5 16.5 10.5 25.5l55 6q82 8 147 86q72 91 338 461l361 508q110 154 123 211q31 4 67 21t59 32l23 14q8 0 16.5 -5t8.5 -11q0 -14 -3 -50t-8.5 -106t-9.5 -145l-41 -774q-4 -68 -5.5 -97t2 -63t7 -43t19 -20.5t30 -13t47.5 -5.5l54 -6q9 -9 6 -27t-14 -24 q-94 6 -232 6q-144 0 -235 -6q-15 6 -15.5 25.5t13.5 25.5l63 6q31 3 52 12.5t28 20.5q15 25 22 127l19 274q3 36 -4 45t-39 9h-295q-46 0 -62 -9.5t-45 -54.5l-159 -233q-92 -144 -92 -154q0 -24 47 -31l88 -12q11 -9 9 -27t-13 -24q-95 6 -209 6q-117 0 -228 -6 q-7 9 -5.5 25.5zM559.5 626.5q6.5 -5.5 40.5 -5.5h258q26 0 33 6.5t8 34.5l33 448q4 53 -4 53q-11 0 -78 -100l-285 -412q-12 -19 -5.5 -24.5zM791 1520q0 46 29 77t67 31q34 0 55 -23.5t21 -54.5q0 -48 -30 -77t-69 -29q-35 0 -54 21t-19 55zM1147 1520q0 46 29 77t67 31 q34 0 55 -23.5t21 -54.5q0 -49 -29 -77.5t-69 -28.5q-35 0 -54.5 21t-19.5 55z" />
<glyph unicode="&#xc5;" horiz-adv-x="1220" d="M-116.5 19.5q1.5 16.5 10.5 25.5l55 6q82 8 147 86q72 91 338 461l361 508q110 154 123 211q31 4 67 21t59 32l23 14q8 0 16.5 -5t8.5 -11q0 -14 -3 -50t-8.5 -106t-9.5 -145l-41 -774q-4 -68 -5.5 -97t2 -63t7 -43t19 -20.5t30 -13t47.5 -5.5l54 -6q9 -9 6 -27t-14 -24 q-94 6 -232 6q-144 0 -235 -6q-15 6 -15.5 25.5t13.5 25.5l63 6q31 3 52 12.5t28 20.5q15 25 22 127l19 274q3 36 -4 45t-39 9h-295q-46 0 -62 -9.5t-45 -54.5l-159 -233q-92 -144 -92 -154q0 -24 47 -31l88 -12q11 -9 9 -27t-13 -24q-95 6 -209 6q-117 0 -228 -6 q-7 9 -5.5 25.5zM559.5 626.5q6.5 -5.5 40.5 -5.5h258q26 0 33 6.5t8 34.5l33 448q4 53 -4 53q-11 0 -78 -100l-285 -412q-12 -19 -5.5 -24.5zM866 1612q0 66 50 116t124 50t124 -50t50 -116q0 -68 -49.5 -117t-124.5 -49t-124.5 49t-49.5 117zM948 1612q0 -47 26.5 -78 t65.5 -31q40 0 66.5 31t26.5 78q0 46 -26.5 76t-66.5 30q-39 0 -65.5 -30.5t-26.5 -75.5z" />
<glyph unicode="&#xc6;" horiz-adv-x="1724" d="M-150 22q0 18 11 27l45 6q56 8 101 40.5t124 123.5q500 574 815 967q34 42 43 61t1 27.5t-40 13.5l-116 19q-11 6 -8 25.5t18 25.5q126 -6 256 -6h514q228 0 289 6q-10 -25 -39 -120.5t-45 -152.5q-6 -12 -26.5 -11t-25.5 13q6 53 7 89t-17 59t-61 35q-70 18 -217 18 h-121q-41 0 -53 -10t-27 -59l-129 -420q-14 -43 -9.5 -51.5t46.5 -8.5h102q147 0 197.5 17.5t85.5 83.5l33 61q6 11 27 9.5t24 -13.5q-40 -100 -70 -199q-29 -92 -53 -198q-9 -12 -27 -11t-24 13v57q0 27 -4 45t-16.5 30.5t-25 19t-41.5 10t-53 4t-71 0.5h-103 q-43 0 -55 -8.5t-25 -51.5l-86 -276q-15 -50 -23 -79.5t-14 -60.5t-5 -51t8 -35q11 -23 57 -33t170 -10q77 0 120.5 3t91.5 14t81 34.5t68.5 62t74.5 99.5q12 8 26.5 4.5t20.5 -16.5q-16 -54 -60.5 -143.5t-80.5 -126.5q-35 1 -111.5 2t-115.5 2q-40 0 -121.5 1t-120.5 1 h-242q-108 0 -243 -6q-12 7 -12.5 24.5t10.5 26.5l71 12q54 9 79 24t48.5 61t57.5 153l100 323q10 33 0 41.5t-55 8.5h-211q-36 0 -54 -11t-53 -53q-247 -300 -373 -463q-19 -25 -26 -40.5t-1 -25t27 -12.5l89 -14q9 -11 7 -30t-12 -25q-102 6 -221 6q-90 0 -192 -6 q-11 10 -11 28zM688.5 745q3.5 -6 44.5 -6h160q54 0 72 10.5t30 51.5l125 409q19 64 15 78h-5q-7 -4 -17 -15.5t-23 -27.5t-19 -22q-186 -224 -364 -447q-22 -25 -18.5 -31z" />
<glyph unicode="&#xc7;" horiz-adv-x="1323" d="M209 518q0 172 80.5 335t212.5 282q130 118 309.5 183.5t378.5 65.5q170 0 336 -65q-63 -153 -92 -275q-6 -12 -28.5 -10.5t-27.5 13.5q30 139 -20 206.5t-203 67.5q-290 0 -524 -229q-91 -91 -166.5 -259.5t-75.5 -353.5q0 -219 101 -333.5t296 -114.5q102 0 187.5 39.5 t143 99t110.5 147.5q15 6 30 2.5t19 -16.5q-41 -124 -133 -289q-28 0 -162 -22q-147 -25 -199 -25q-22 0 -30 2l-39 -49q-24 -32 2 -53q80 -66 80 -125q0 -69 -64 -117.5t-141 -48.5q-50 0 -76.5 18.5t-26.5 47.5q0 17 14.5 33t37.5 16q20 0 49 -29q31 -31 43 -31 q21 0 39 15.5t18 48.5q0 36 -30 70.5t-78 56.5v8l106 143q-96 11 -177 44.5t-150.5 95t-109.5 165.5t-40 240z" />
<glyph unicode="&#xc8;" horiz-adv-x="1159" d="M3.5 18.5q-0.5 17.5 10.5 26.5l72 6q52 4 78.5 22.5t48.5 64.5t57 157l238 762q13 43 19.5 65.5t13.5 50t8 40t-0.5 28.5t-7.5 22t-17 14t-25 12t-36 9l-41 9q-10 12 -7 28.5t19 22.5q74 -4 109 -4q37 -2 119 -2h387q227 0 288 6q-31 -79 -84 -273q-6 -12 -26 -11t-25 13 q6 53 6.5 89t-17.5 59t-61 35q-70 18 -217 18h-120q-40 0 -53 -11.5t-27 -57.5l-131 -420q-15 -43 -10.5 -51.5t46.5 -8.5h103q147 0 197.5 17.5t85.5 83.5l32 61q6 11 27 9.5t24 -13.5q-36 -90 -69 -199q-29 -92 -53 -198q-9 -12 -27.5 -11t-24.5 13v57q0 27 -4 45 t-16.5 30.5t-25 19t-41.5 10t-53 4t-71 0.5h-102q-43 0 -55 -8.5t-25 -51.5l-84 -276q-16 -52 -23.5 -79.5t-14 -59.5t-5.5 -52t8 -35q11 -23 57.5 -33t170.5 -10q77 0 120.5 3t91.5 14t81 34.5t68.5 62t74.5 99.5q12 8 26.5 4.5t20.5 -16.5q-16 -54 -60.5 -143.5 t-80.5 -126.5q-35 1 -112 2t-116 2q-40 0 -121 1t-120 1h-242q-109 0 -244 -6q-12 7 -12.5 24.5zM655 1602q-12 23 13 71q10 19 23.5 29t23.5 10q20 0 47 -24l250 -201q4 -11 -2.5 -24.5t-16.5 -16.5l-295 125q-33 14 -43 31z" />
<glyph unicode="&#xc9;" horiz-adv-x="1159" d="M3.5 18.5q-0.5 17.5 10.5 26.5l72 6q52 4 78.5 22.5t48.5 64.5t57 157l238 762q13 43 19.5 65.5t13.5 50t8 40t-0.5 28.5t-7.5 22t-17 14t-25 12t-36 9l-41 9q-10 12 -7 28.5t19 22.5q74 -4 109 -4q37 -2 119 -2h387q227 0 288 6q-31 -79 -84 -273q-6 -12 -26 -11t-25 13 q6 53 6.5 89t-17.5 59t-61 35q-70 18 -217 18h-120q-40 0 -53 -11.5t-27 -57.5l-131 -420q-15 -43 -10.5 -51.5t46.5 -8.5h103q147 0 197.5 17.5t85.5 83.5l32 61q6 11 27 9.5t24 -13.5q-36 -90 -69 -199q-29 -92 -53 -198q-9 -12 -27.5 -11t-24.5 13v57q0 27 -4 45 t-16.5 30.5t-25 19t-41.5 10t-53 4t-71 0.5h-102q-43 0 -55 -8.5t-25 -51.5l-84 -276q-16 -52 -23.5 -79.5t-14 -59.5t-5.5 -52t8 -35q11 -23 57.5 -33t170.5 -10q77 0 120.5 3t91.5 14t81 34.5t68.5 62t74.5 99.5q12 8 26.5 4.5t20.5 -16.5q-16 -54 -60.5 -143.5 t-80.5 -126.5q-35 1 -112 2t-116 2q-40 0 -121 1t-120 1h-242q-109 0 -244 -6q-12 7 -12.5 24.5zM846 1487l250 201q27 24 47 24q10 0 23.5 -10t23.5 -29q24 -47 12 -71q-10 -17 -43 -31l-295 -125q-10 3 -16 16.5t-2 24.5z" />
<glyph unicode="&#xca;" horiz-adv-x="1159" d="M3.5 18.5q-0.5 17.5 10.5 26.5l72 6q52 4 78.5 22.5t48.5 64.5t57 157l238 762q13 43 19.5 65.5t13.5 50t8 40t-0.5 28.5t-7.5 22t-17 14t-25 12t-36 9l-41 9q-10 12 -7 28.5t19 22.5q74 -4 109 -4q37 -2 119 -2h387q227 0 288 6q-31 -79 -84 -273q-6 -12 -26 -11t-25 13 q6 53 6.5 89t-17.5 59t-61 35q-70 18 -217 18h-120q-40 0 -53 -11.5t-27 -57.5l-131 -420q-15 -43 -10.5 -51.5t46.5 -8.5h103q147 0 197.5 17.5t85.5 83.5l32 61q6 11 27 9.5t24 -13.5q-36 -90 -69 -199q-29 -92 -53 -198q-9 -12 -27.5 -11t-24.5 13v57q0 27 -4 45 t-16.5 30.5t-25 19t-41.5 10t-53 4t-71 0.5h-102q-43 0 -55 -8.5t-25 -51.5l-84 -276q-16 -52 -23.5 -79.5t-14 -59.5t-5.5 -52t8 -35q11 -23 57.5 -33t170.5 -10q77 0 120.5 3t91.5 14t81 34.5t68.5 62t74.5 99.5q12 8 26.5 4.5t20.5 -16.5q-16 -54 -60.5 -143.5 t-80.5 -126.5q-35 1 -112 2t-116 2q-40 0 -121 1t-120 1h-242q-109 0 -244 -6q-12 7 -12.5 24.5zM682 1470l291 224q24 18 43 18q25 0 35 -18l180 -224q0 -12 -11 -23t-22 -11l-178 127q-16 16 -31 16q-12 0 -33 -12l-256 -131q-10 0 -15.5 11.5t-2.5 22.5z" />
<glyph unicode="&#xcb;" horiz-adv-x="1159" d="M3.5 18.5q-0.5 17.5 10.5 26.5l72 6q52 4 78.5 22.5t48.5 64.5t57 157l238 762q13 43 19.5 65.5t13.5 50t8 40t-0.5 28.5t-7.5 22t-17 14t-25 12t-36 9l-41 9q-10 12 -7 28.5t19 22.5q74 -4 109 -4q37 -2 119 -2h387q227 0 288 6q-31 -79 -84 -273q-6 -12 -26 -11t-25 13 q6 53 6.5 89t-17.5 59t-61 35q-70 18 -217 18h-120q-40 0 -53 -11.5t-27 -57.5l-131 -420q-15 -43 -10.5 -51.5t46.5 -8.5h103q147 0 197.5 17.5t85.5 83.5l32 61q6 11 27 9.5t24 -13.5q-36 -90 -69 -199q-29 -92 -53 -198q-9 -12 -27.5 -11t-24.5 13v57q0 27 -4 45 t-16.5 30.5t-25 19t-41.5 10t-53 4t-71 0.5h-102q-43 0 -55 -8.5t-25 -51.5l-84 -276q-16 -52 -23.5 -79.5t-14 -59.5t-5.5 -52t8 -35q11 -23 57.5 -33t170.5 -10q77 0 120.5 3t91.5 14t81 34.5t68.5 62t74.5 99.5q12 8 26.5 4.5t20.5 -16.5q-16 -54 -60.5 -143.5 t-80.5 -126.5q-35 1 -112 2t-116 2q-40 0 -121 1t-120 1h-242q-109 0 -244 -6q-12 7 -12.5 24.5zM719 1520q0 46 29 77t67 31q34 0 55 -23.5t21 -54.5q0 -48 -29.5 -77t-68.5 -29q-35 0 -54.5 21t-19.5 55zM1075 1520q0 46 29 77t67 31q34 0 55 -23.5t21 -54.5 q0 -49 -29 -77.5t-69 -28.5q-35 0 -54.5 21t-19.5 55z" />
<glyph unicode="&#xcc;" horiz-adv-x="698" d="M14.5 18.5q-0.5 17.5 10.5 26.5l63 6q52 5 78.5 23.5t48.5 64.5t57 156l240 762q18 56 26 84.5t13.5 59t2.5 43.5t-13.5 26t-28 18t-47.5 10l-49 9q-10 12 -7 28.5t19 22.5q123 -6 238 -6q98 0 245 6q11 -6 12 -24.5t-12 -26.5l-55 -9q-32 -5 -51 -9t-37.5 -17t-27.5 -24 t-23 -43.5t-23 -59.5t-28 -88l-240 -762q-17 -53 -25.5 -84t-13.5 -61t-2.5 -45t11.5 -28t25.5 -18t43.5 -8l63 -6q9 -11 6 -28t-14 -23q-150 6 -258 6q-112 0 -235 -6q-12 7 -12.5 24.5zM426 1602q-12 24 12 71q10 19 23.5 29t23.5 10q20 0 47 -24l250 -201q4 -11 -2 -24.5 t-16 -16.5l-295 125q-33 14 -43 31z" />
<glyph unicode="&#xcd;" horiz-adv-x="698" d="M14.5 18.5q-0.5 17.5 10.5 26.5l63 6q52 5 78.5 23.5t48.5 64.5t57 156l240 762q18 56 26 84.5t13.5 59t2.5 43.5t-13.5 26t-28 18t-47.5 10l-49 9q-10 12 -7 28.5t19 22.5q123 -6 238 -6q98 0 245 6q11 -6 12 -24.5t-12 -26.5l-55 -9q-32 -5 -51 -9t-37.5 -17t-27.5 -24 t-23 -43.5t-23 -59.5t-28 -88l-240 -762q-17 -53 -25.5 -84t-13.5 -61t-2.5 -45t11.5 -28t25.5 -18t43.5 -8l63 -6q9 -11 6 -28t-14 -23q-150 6 -258 6q-112 0 -235 -6q-12 7 -12.5 24.5zM616 1487l250 201q27 24 47 24q10 0 24 -10t24 -29q24 -47 12 -71q-10 -17 -43 -31 l-295 -125q-10 3 -16.5 16.5t-2.5 24.5z" />
<glyph unicode="&#xce;" horiz-adv-x="698" d="M14.5 18.5q-0.5 17.5 10.5 26.5l63 6q52 5 78.5 23.5t48.5 64.5t57 156l240 762q18 56 26 84.5t13.5 59t2.5 43.5t-13.5 26t-28 18t-47.5 10l-49 9q-10 12 -7 28.5t19 22.5q123 -6 238 -6q98 0 245 6q11 -6 12 -24.5t-12 -26.5l-55 -9q-32 -5 -51 -9t-37.5 -17t-27.5 -24 t-23 -43.5t-23 -59.5t-28 -88l-240 -762q-17 -53 -25.5 -84t-13.5 -61t-2.5 -45t11.5 -28t25.5 -18t43.5 -8l63 -6q9 -11 6 -28t-14 -23q-150 6 -258 6q-112 0 -235 -6q-12 7 -12.5 24.5zM434 1470l291 224q24 18 43 18q25 0 35 -18l180 -224q0 -12 -11 -23t-22 -11 l-178 127q-16 16 -31 16q-11 0 -32 -12l-256 -131q-10 0 -16 11.5t-3 22.5z" />
<glyph unicode="&#xcf;" horiz-adv-x="698" d="M14.5 18.5q-0.5 17.5 10.5 26.5l63 6q52 5 78.5 23.5t48.5 64.5t57 156l240 762q18 56 26 84.5t13.5 59t2.5 43.5t-13.5 26t-28 18t-47.5 10l-49 9q-10 12 -7 28.5t19 22.5q123 -6 238 -6q98 0 245 6q11 -6 12 -24.5t-12 -26.5l-55 -9q-32 -5 -51 -9t-37.5 -17t-27.5 -24 t-23 -43.5t-23 -59.5t-28 -88l-240 -762q-17 -53 -25.5 -84t-13.5 -61t-2.5 -45t11.5 -28t25.5 -18t43.5 -8l63 -6q9 -11 6 -28t-14 -23q-150 6 -258 6q-112 0 -235 -6q-12 7 -12.5 24.5zM467 1520q0 46 29 77t67 31q34 0 55 -23.5t21 -54.5q0 -48 -29.5 -77t-68.5 -29 q-35 0 -54.5 21t-19.5 55zM823 1520q0 46 29.5 77t67.5 31q34 0 54.5 -23.5t20.5 -54.5q0 -49 -29 -77.5t-69 -28.5q-35 0 -54.5 21t-19.5 55z" />
<glyph unicode="&#xd0;" horiz-adv-x="1525" d="M28.5 18.5q-0.5 17.5 10.5 26.5l53 6q50 5 76 23t48.5 65.5t55.5 155.5l115 373h-219q-5 18 -1 39.5t17 31.5h226l118 385q27 96 20 122t-54 32l-82 10q-9 6 -9.5 23.5t9.5 25.5q163 21 381 21q123 0 226.5 -17.5t178 -47.5t133 -73t95.5 -91.5t61 -105.5t33.5 -111 t9.5 -113q0 -195 -87 -357t-237 -264q-269 -184 -684 -184q-23 0 -105.5 3t-150.5 3q-117 0 -225 -6q-12 7 -12.5 24.5zM406 233q-28 -92 12.5 -129.5t173.5 -37.5q122 0 228 28.5t181.5 75t136.5 109.5t99.5 129.5t64 137t36 129t10.5 109.5q0 38 -1.5 69t-8 73.5 t-17.5 76.5t-31 73.5t-47.5 69.5t-69 59t-92.5 47.5t-121 30t-153 11.5q-46 0 -63.5 -15t-32.5 -65l-148 -475h299q8 -18 3.5 -39.5t-21.5 -31.5h-303z" />
<glyph unicode="&#xd1;" horiz-adv-x="1513" d="M1.5 17.5q-2.5 16.5 8.5 27.5l51 6q63 5 101 35q26 20 60 106.5t95 284.5l162 524q8 24 21 66t19.5 62.5t14 46.5t10.5 42t3 27q0 21 -12.5 30.5t-40.5 14.5l-82 17q-12 10 -8.5 28.5t18.5 22.5q16 -1 47.5 -2t48.5 -2q15 0 52.5 -1t60.5 -1h127v-29q0 -48 100 -297 l207 -510q86 -207 100 -231q18 0 35 57l162 514q98 313 98 379q0 30 -9 41.5t-42 17.5l-80 13q-9 14 -4.5 29.5t16.5 21.5q108 -6 232 -6q105 0 194 6q8 -6 9.5 -24t-7.5 -27l-47 -9q-84 -14 -106 -36t-71.5 -143.5t-96.5 -268.5l-148 -459q-63 -194 -129 -422 q-16 -16 -49 -12q-63 192 -190 500l-162 393q-20 49 -50 126.5t-51 129.5t-36 82q-10 0 -66 -180l-159 -533q-33 -108 -86 -340q-11 -46 13 -61.5t87 -22.5l47 -6q9 -9 7 -26t-13 -25q-91 6 -234 6q-120 0 -215 -6q-10 7 -12.5 23.5zM913 1427q6 30 27.5 81.5t42.5 70.5 q21 23 43.5 31t58.5 8h103q58 0 83.5 14t59.5 62q7 5 18 3t15 -11q-9 -36 -30.5 -77t-41.5 -61q-32 -30 -92 -30h-100q-60 0 -93.5 -22.5t-62.5 -76.5q-7 -5 -17 -3t-14 11z" />
<glyph unicode="&#xd2;" horiz-adv-x="1495" d="M209 502q5 196 87.5 379t240.5 317q220 186 499 186q103 0 192 -35t158 -102.5t106 -176.5t30 -247q-8 -173 -82.5 -346t-194.5 -287q-234 -223 -536 -223q-126 0 -225.5 46.5t-159 123.5t-89 170.5t-26.5 194.5zM381 424q-2 -77 14 -143.5t53 -124.5t107.5 -91.5 t167.5 -33.5q188 0 342 164q131 141 205 339.5t80 378.5q7 193 -79.5 300.5t-242.5 107.5q-162 0 -307 -123q-58 -49 -114 -125t-106 -174t-83 -222.5t-37 -252.5zM823 1602q-12 23 13 71q10 19 23.5 29t23.5 10q20 0 47 -24l250 -201q4 -11 -2.5 -24.5t-16.5 -16.5 l-295 125q-33 14 -43 31z" />
<glyph unicode="&#xd3;" horiz-adv-x="1495" d="M209 502q5 196 87.5 379t240.5 317q220 186 499 186q103 0 192 -35t158 -102.5t106 -176.5t30 -247q-8 -173 -82.5 -346t-194.5 -287q-234 -223 -536 -223q-126 0 -225.5 46.5t-159 123.5t-89 170.5t-26.5 194.5zM381 424q-2 -77 14 -143.5t53 -124.5t107.5 -91.5 t167.5 -33.5q188 0 342 164q131 141 205 339.5t80 378.5q7 193 -79.5 300.5t-242.5 107.5q-162 0 -307 -123q-58 -49 -114 -125t-106 -174t-83 -222.5t-37 -252.5zM983 1487l250 201q27 24 47 24q10 0 23.5 -10t23.5 -29q24 -47 12 -71q-10 -17 -43 -31l-295 -125 q-10 3 -16 16.5t-2 24.5z" />
<glyph unicode="&#xd4;" horiz-adv-x="1495" d="M209 502q5 196 87.5 379t240.5 317q220 186 499 186q103 0 192 -35t158 -102.5t106 -176.5t30 -247q-8 -173 -82.5 -346t-194.5 -287q-234 -223 -536 -223q-126 0 -225.5 46.5t-159 123.5t-89 170.5t-26.5 194.5zM381 424q-2 -77 14 -143.5t53 -124.5t107.5 -91.5 t167.5 -33.5q188 0 342 164q131 141 205 339.5t80 378.5q7 193 -79.5 300.5t-242.5 107.5q-162 0 -307 -123q-58 -49 -114 -125t-106 -174t-83 -222.5t-37 -252.5zM754 1470l290 224q24 18 43 18q25 0 35 -18l181 -224q0 -12 -11 -23t-22 -11l-178 127q-16 16 -31 16 q-12 0 -33 -12l-256 -131q-10 0 -15.5 11.5t-2.5 22.5z" />
<glyph unicode="&#xd5;" horiz-adv-x="1495" d="M209 502q5 196 87.5 379t240.5 317q220 186 499 186q103 0 192 -35t158 -102.5t106 -176.5t30 -247q-8 -173 -82.5 -346t-194.5 -287q-234 -223 -536 -223q-126 0 -225.5 46.5t-159 123.5t-89 170.5t-26.5 194.5zM381 424q-2 -77 14 -143.5t53 -124.5t107.5 -91.5 t167.5 -33.5q188 0 342 164q131 141 205 339.5t80 378.5q7 193 -79.5 300.5t-242.5 107.5q-162 0 -307 -123q-58 -49 -114 -125t-106 -174t-83 -222.5t-37 -252.5zM846 1427q6 30 27 81.5t42 70.5q21 23 43.5 31t59.5 8h102q58 0 84 14t60 62q7 5 17.5 3t14.5 -11 q-9 -37 -30 -77.5t-41 -60.5q-32 -30 -92 -30h-101q-60 0 -93 -22.5t-62 -76.5q-7 -5 -17 -3t-14 11z" />
<glyph unicode="&#xd6;" horiz-adv-x="1495" d="M209 502q5 196 87.5 379t240.5 317q220 186 499 186q103 0 192 -35t158 -102.5t106 -176.5t30 -247q-8 -173 -82.5 -346t-194.5 -287q-234 -223 -536 -223q-126 0 -225.5 46.5t-159 123.5t-89 170.5t-26.5 194.5zM381 424q-2 -77 14 -143.5t53 -124.5t107.5 -91.5 t167.5 -33.5q188 0 342 164q131 141 205 339.5t80 378.5q7 193 -79.5 300.5t-242.5 107.5q-162 0 -307 -123q-58 -49 -114 -125t-106 -174t-83 -222.5t-37 -252.5zM803 1520q0 46 29 77t67 31q34 0 55 -23.5t21 -54.5q0 -48 -29.5 -77t-68.5 -29q-35 0 -54.5 21t-19.5 55z M1159 1520q0 46 29 77t67 31q34 0 55 -23.5t21 -54.5q0 -49 -29 -77.5t-69 -28.5q-35 0 -54.5 21t-19.5 55z" />
<glyph unicode="&#xd7;" horiz-adv-x="1146" d="M256 102l301 306l-301 301l76 79l303 -303l305 308l76 -78l-303 -307l303 -306l-76 -79l-305 307l-303 -307z" />
<glyph unicode="&#xd8;" horiz-adv-x="1495" d="M135 -33l176 191q-109 147 -102 344q5 196 87.5 379t240.5 317q220 186 499 186q184 0 314 -106l139 156q18 0 34.5 -18t18.5 -36l-139 -153q131 -147 119 -404q-8 -171 -82 -344t-195 -289q-234 -223 -536 -223q-218 0 -349 131l-174 -188q-20 2 -35.5 18.5t-15.5 38.5z M381 420q-3 -92 20 -166l879 948q-89 119 -252 119q-162 0 -307 -123q-58 -49 -114 -125t-106 -174.5t-83 -224t-37 -254.5zM432 176q79 -145 281 -145t354 162q133 145 204 342.5t79 406.5q3 116 -33 193z" />
<glyph unicode="&#xd9;" horiz-adv-x="1503" d="M326 545l159 512q17 56 25 84.5t13.5 59.5t2.5 44t-13.5 26t-28 18.5t-46.5 10.5l-51 9q-9 9 -7 26t15 23q129 -6 240 -6q102 0 252 6q11 -6 11 -24t-13 -25l-58 -9q-23 -3 -39 -6t-31 -11t-24 -13t-20.5 -22t-17 -28.5t-17 -42t-18 -52t-21.5 -68.5l-147 -473 q-167 -543 266 -543q83 0 154.5 29t123.5 76t96.5 115.5t74.5 136.5t57 151l94 289q63 194 82 317q7 45 8.5 74.5t-18 46.5t-68.5 24l-57 9q-9 10 -6.5 26.5t14.5 22.5q150 -6 219 -6q101 0 221 6q12 -8 12 -25t-12 -24l-47 -9q-40 -7 -63.5 -16t-41.5 -28.5t-29 -41 t-28 -65.5q-21 -55 -100 -311l-94 -301q-97 -303 -240 -428q-77 -68 -181.5 -105t-205.5 -37q-280 0 -382.5 148t-14.5 430zM848 1602q-12 24 12 71q10 19 23.5 29t23.5 10q20 0 47 -24l250 -201q4 -11 -2 -24.5t-16 -16.5l-295 125q-33 14 -43 31z" />
<glyph unicode="&#xda;" horiz-adv-x="1503" d="M326 545l159 512q17 56 25 84.5t13.5 59.5t2.5 44t-13.5 26t-28 18.5t-46.5 10.5l-51 9q-9 9 -7 26t15 23q129 -6 240 -6q102 0 252 6q11 -6 11 -24t-13 -25l-58 -9q-23 -3 -39 -6t-31 -11t-24 -13t-20.5 -22t-17 -28.5t-17 -42t-18 -52t-21.5 -68.5l-147 -473 q-167 -543 266 -543q83 0 154.5 29t123.5 76t96.5 115.5t74.5 136.5t57 151l94 289q63 194 82 317q7 45 8.5 74.5t-18 46.5t-68.5 24l-57 9q-9 10 -6.5 26.5t14.5 22.5q150 -6 219 -6q101 0 221 6q12 -8 12 -25t-12 -24l-47 -9q-40 -7 -63.5 -16t-41.5 -28.5t-29 -41 t-28 -65.5q-21 -55 -100 -311l-94 -301q-97 -303 -240 -428q-77 -68 -181.5 -105t-205.5 -37q-280 0 -382.5 148t-14.5 430zM977 1487l250 201q27 24 47 24q10 0 23.5 -10t23.5 -29q24 -47 12 -71q-10 -17 -43 -31l-295 -125q-10 3 -16 16.5t-2 24.5z" />
<glyph unicode="&#xdb;" horiz-adv-x="1503" d="M326 545l159 512q17 56 25 84.5t13.5 59.5t2.5 44t-13.5 26t-28 18.5t-46.5 10.5l-51 9q-9 9 -7 26t15 23q129 -6 240 -6q102 0 252 6q11 -6 11 -24t-13 -25l-58 -9q-23 -3 -39 -6t-31 -11t-24 -13t-20.5 -22t-17 -28.5t-17 -42t-18 -52t-21.5 -68.5l-147 -473 q-167 -543 266 -543q83 0 154.5 29t123.5 76t96.5 115.5t74.5 136.5t57 151l94 289q63 194 82 317q7 45 8.5 74.5t-18 46.5t-68.5 24l-57 9q-9 10 -6.5 26.5t14.5 22.5q150 -6 219 -6q101 0 221 6q12 -8 12 -25t-12 -24l-47 -9q-40 -7 -63.5 -16t-41.5 -28.5t-29 -41 t-28 -65.5q-21 -55 -100 -311l-94 -301q-97 -303 -240 -428q-77 -68 -181.5 -105t-205.5 -37q-280 0 -382.5 148t-14.5 430zM840 1470l290 224q24 18 44 18q24 0 34 -18l181 -224q0 -12 -11 -23t-22 -11l-178 127q-16 16 -31 16q-12 0 -33 -12l-256 -131q-10 0 -15.5 11.5 t-2.5 22.5z" />
<glyph unicode="&#xdc;" horiz-adv-x="1503" d="M326 545l159 512q17 56 25 84.5t13.5 59.5t2.5 44t-13.5 26t-28 18.5t-46.5 10.5l-51 9q-9 9 -7 26t15 23q129 -6 240 -6q102 0 252 6q11 -6 11 -24t-13 -25l-58 -9q-23 -3 -39 -6t-31 -11t-24 -13t-20.5 -22t-17 -28.5t-17 -42t-18 -52t-21.5 -68.5l-147 -473 q-167 -543 266 -543q83 0 154.5 29t123.5 76t96.5 115.5t74.5 136.5t57 151l94 289q63 194 82 317q7 45 8.5 74.5t-18 46.5t-68.5 24l-57 9q-9 10 -6.5 26.5t14.5 22.5q150 -6 219 -6q101 0 221 6q12 -8 12 -25t-12 -24l-47 -9q-40 -7 -63.5 -16t-41.5 -28.5t-29 -41 t-28 -65.5q-21 -55 -100 -311l-94 -301q-97 -303 -240 -428q-77 -68 -181.5 -105t-205.5 -37q-280 0 -382.5 148t-14.5 430zM881 1520q0 46 29 77t67 31q34 0 55 -23.5t21 -54.5q0 -48 -30 -77t-69 -29q-35 0 -54 21t-19 55zM1237 1520q0 46 29 77t67 31q34 0 55 -23.5 t21 -54.5q0 -49 -29 -77.5t-69 -28.5q-35 0 -54.5 21t-19.5 55z" />
<glyph unicode="&#xdd;" horiz-adv-x="1155" d="M251.5 19.5q-0.5 18.5 10.5 25.5l74 6q26 2 42.5 6t33 15.5t27 25t24.5 44.5t25.5 63t31.5 90l41 121q28 81 31 123t-17 139l-102 444q-23 101 -43.5 134t-73.5 42l-51 9q-9 11 -6 28t12 23q114 -6 217 -6q121 0 220 6q9 -8 9.5 -25t-9.5 -26l-60 -9q-58 -8 -73.5 -30 t-2.5 -82l105 -481q8 -38 19 -39t42 36l252 304q197 240 197 258q0 24 -60 34l-51 9q-11 9 -9.5 26.5t13.5 24.5q120 -6 213 -6q83 0 185 6q10 -6 10 -24t-10 -27l-43 -9q-83 -17 -115 -47q-33 -30 -94.5 -94t-106.5 -117l-233 -274q-110 -128 -142 -179.5t-69 -168.5 l-39 -123q-18 -56 -27.5 -89t-14.5 -63t-2.5 -44.5t13 -26t26.5 -15.5t44 -6l73 -6q10 -8 7.5 -27t-13.5 -24q-172 6 -274 6q-106 0 -244 -6q-12 7 -12.5 25.5zM844 1487l250 201q27 24 47 24q10 0 23.5 -10t23.5 -29q24 -47 12 -71q-10 -17 -43 -31l-295 -125 q-10 3 -16 16.5t-2 24.5z" />
<glyph unicode="&#xde;" horiz-adv-x="1146" d="M17 18.5q0 17.5 12 26.5l59 6q39 4 60 12t42 36t37.5 70t42.5 126l240 762q18 56 26 84.5t13.5 59t2.5 43.5t-13.5 26t-28 18t-47.5 10l-49 9q-10 12 -7 28t19 23q123 -6 238 -6q125 0 245 6q11 -6 11 -25t-11 -26l-45 -9q-34 -6 -53.5 -11t-39.5 -17.5t-30 -24.5 t-23.5 -41t-23 -58.5t-26.5 -84.5h73q240 0 351 -90q100 -81 100 -219q0 -88 -38 -159.5t-98.5 -116t-136 -73.5t-149 -39t-139.5 -6q-12 4 -13.5 18t7.5 23q82 15 153 39q100 36 170 123t70 197q0 120 -69 179.5t-199 59.5q-71 0 -93.5 -12.5t-35.5 -52.5l-197 -637 q-16 -53 -25 -84.5t-14 -61.5t-2.5 -45.5t11.5 -28.5t25.5 -17.5t43.5 -6.5l92 -6q10 -11 7.5 -28t-13.5 -23q-197 6 -289 6q-114 0 -231 -6q-12 7 -12 24.5z" />
<glyph unicode="&#xdf;" horiz-adv-x="952" d="M-289 -440q0 55 49 82q10 2 15.5 3.5t13.5 -6t12 -12t11 -14.5q20 -32 56 -56t71 -24q20 0 41.5 15.5t35.5 39.5q48 79 113 457q89 509 190 791q124 348 390 524q155 104 344 104q88 0 154.5 -55t66.5 -131q0 -43 -25.5 -84t-73.5 -77.5t-90 -62.5t-102 -58t-82 -46 q-145 -88 -145 -213q0 -72 63 -229q64 -159 64 -232q0 -70 -22 -118t-73 -95q-37 -37 -91 -64.5t-83 -27.5q-57 0 -93 38t-36 75q0 35 17 59q9 12 20.5 12.5t20.5 -8.5q71 -71 129 -71q36 0 70 29t34 83q0 36 -67 187q-6 13 -9 20q-77 174 -77 269q0 57 18 103t62.5 94 t100.5 91t152 107q56 37 95 81t53 74.5t14 49.5q0 61 -44.5 93t-117.5 32q-64 0 -127.5 -34t-117 -89.5t-102.5 -131.5t-86.5 -155.5t-67.5 -165.5q-60 -170 -111 -401t-91 -423t-77 -284q-43 -106 -131 -181t-192 -75q-71 0 -106.5 37t-35.5 74z" />
<glyph unicode="&#xe0;" horiz-adv-x="909" d="M41 86q0 48 45 160.5t135 236.5q139 191 271 265q105 59 184 59q25 0 49 -12q8 -4 21 -17t20 -26l57 131q27 11 59.5 0.5t41.5 -31.5q-35 -86 -133.5 -339.5t-141.5 -375.5q-16 -47 15 -47q53 0 210 137q11 0 20 -7.5t9 -18.5q-70 -93 -167 -161.5t-177 -68.5 q-31 0 -45 19t-14 37q0 20 20 79l68 185l-6 2q-106 -132 -241.5 -227t-209.5 -95q-41 0 -65.5 34.5t-24.5 80.5zM211 119q0 -18 8.5 -28.5t22.5 -10.5q19 0 69.5 31t128.5 102q108 100 177.5 219t97.5 223q-11 32 -38 53t-65 21q-35 0 -65 -17.5t-80 -62.5 q-97 -87 -176.5 -253.5t-79.5 -276.5zM479 1237q0 25 35 47q39 27 64 27q24 0 38 -45l107 -318q0 -11 -13 -17.5t-24 -4.5l-178 254q-29 43 -29 57z" />
<glyph unicode="&#xe1;" horiz-adv-x="909" d="M41 86q0 48 45 160.5t135 236.5q139 191 271 265q105 59 184 59q25 0 49 -12q8 -4 21 -17t20 -26l57 131q27 11 59.5 0.5t41.5 -31.5q-35 -86 -133.5 -339.5t-141.5 -375.5q-16 -47 15 -47q53 0 210 137q11 0 20 -7.5t9 -18.5q-70 -93 -167 -161.5t-177 -68.5 q-31 0 -45 19t-14 37q0 20 20 79l68 185l-6 2q-106 -132 -241.5 -227t-209.5 -95q-41 0 -65.5 34.5t-24.5 80.5zM211 119q0 -18 8.5 -28.5t22.5 -10.5q19 0 69.5 31t128.5 102q108 100 177.5 219t97.5 223q-11 32 -38 53t-65 21q-35 0 -65 -17.5t-80 -62.5 q-97 -87 -176.5 -253.5t-79.5 -276.5zM678 965l192 292q27 44 50 41q27 0 57 -30t27 -54q0 -22 -35 -49l-258 -227q-11 0 -22 8.5t-11 18.5z" />
<glyph unicode="&#xe2;" horiz-adv-x="909" d="M41 86q0 48 45 160.5t135 236.5q139 191 271 265q105 59 184 59q25 0 49 -12q8 -4 21 -17t20 -26l57 131q27 11 59.5 0.5t41.5 -31.5q-35 -86 -133.5 -339.5t-141.5 -375.5q-16 -47 15 -47q53 0 210 137q11 0 20 -7.5t9 -18.5q-70 -93 -167 -161.5t-177 -68.5 q-31 0 -45 19t-14 37q0 20 20 79l68 185l-6 2q-106 -132 -241.5 -227t-209.5 -95q-41 0 -65.5 34.5t-24.5 80.5zM211 119q0 -18 8.5 -28.5t22.5 -10.5q19 0 69.5 31t128.5 102q108 100 177.5 219t97.5 223q-11 32 -38 53t-65 21q-35 0 -65 -17.5t-80 -62.5 q-97 -87 -176.5 -253.5t-79.5 -276.5zM469 965l250 335q25 31 43 31q11 0 21 -10.5t14 -28.5l77 -331q-5 -11 -17.5 -17.5t-25.5 -3.5l-86 188q-12 27 -18 27q-11 0 -33 -22l-190 -197q-12 -2 -23.5 7t-11.5 22z" />
<glyph unicode="&#xe3;" horiz-adv-x="909" d="M41 86q0 48 45 160.5t135 236.5q139 191 271 265q105 59 184 59q25 0 49 -12q8 -4 21 -17t20 -26l57 131q27 11 59.5 0.5t41.5 -31.5q-35 -86 -133.5 -339.5t-141.5 -375.5q-16 -47 15 -47q53 0 210 137q11 0 20 -7.5t9 -18.5q-70 -93 -167 -161.5t-177 -68.5 q-31 0 -45 19t-14 37q0 20 20 79l68 185l-6 2q-106 -132 -241.5 -227t-209.5 -95q-41 0 -65.5 34.5t-24.5 80.5zM211 119q0 -18 8.5 -28.5t22.5 -10.5q19 0 69.5 31t128.5 102q108 100 177.5 219t97.5 223q-11 32 -38 53t-65 21q-35 0 -65 -17.5t-80 -62.5 q-97 -87 -176.5 -253.5t-79.5 -276.5zM498 969q6 30 27 81t42 70q38 43 103 43h102q59 0 84.5 12.5t58.5 59.5q7 5 18 3t15 -11q-9 -37 -30 -77t-41 -60q-33 -31 -93 -31h-100q-61 0 -94 -22t-62 -76q-7 -5 -16.5 -3t-13.5 11z" />
<glyph unicode="&#xe4;" horiz-adv-x="909" d="M41 86q0 48 45 160.5t135 236.5q139 191 271 265q105 59 184 59q25 0 49 -12q8 -4 21 -17t20 -26l57 131q27 11 59.5 0.5t41.5 -31.5q-35 -86 -133.5 -339.5t-141.5 -375.5q-16 -47 15 -47q53 0 210 137q11 0 20 -7.5t9 -18.5q-70 -93 -167 -161.5t-177 -68.5 q-31 0 -45 19t-14 37q0 20 20 79l68 185l-6 2q-106 -132 -241.5 -227t-209.5 -95q-41 0 -65.5 34.5t-24.5 80.5zM211 119q0 -18 8.5 -28.5t22.5 -10.5q19 0 69.5 31t128.5 102q108 100 177.5 219t97.5 223q-11 32 -38 53t-65 21q-35 0 -65 -17.5t-80 -62.5 q-97 -87 -176.5 -253.5t-79.5 -276.5zM467 1120q0 48 29 79.5t69 31.5q35 0 55.5 -23.5t20.5 -54.5q0 -51 -29.5 -81t-68.5 -30q-35 0 -55.5 21.5t-20.5 56.5zM784 1120q0 48 30 79.5t69 31.5q35 0 55 -23.5t20 -54.5q0 -51 -29.5 -81t-68.5 -30q-35 0 -55.5 21.5 t-20.5 56.5z" />
<glyph unicode="&#xe5;" horiz-adv-x="909" d="M41 86q0 48 45 160.5t135 236.5q139 191 271 265q105 59 184 59q25 0 49 -12q8 -4 21 -17t20 -26l57 131q27 11 59.5 0.5t41.5 -31.5q-35 -86 -133.5 -339.5t-141.5 -375.5q-16 -47 15 -47q53 0 210 137q11 0 20 -7.5t9 -18.5q-70 -93 -167 -161.5t-177 -68.5 q-31 0 -45 19t-14 37q0 20 20 79l68 185l-6 2q-106 -132 -241.5 -227t-209.5 -95q-41 0 -65.5 34.5t-24.5 80.5zM211 119q0 -18 8.5 -28.5t22.5 -10.5q19 0 69.5 31t128.5 102q108 100 177.5 219t97.5 223q-11 32 -38 53t-65 21q-35 0 -65 -17.5t-80 -62.5 q-97 -87 -176.5 -253.5t-79.5 -276.5zM543 1141q0 67 49.5 116.5t124.5 49.5t124.5 -49.5t49.5 -116.5q0 -68 -49.5 -117t-124.5 -49t-124.5 49t-49.5 117zM625 1141q0 -47 26.5 -78t65.5 -31q40 0 66 31t26 78q0 46 -26 76t-66 30q-39 0 -65.5 -30.5t-26.5 -75.5z" />
<glyph unicode="&#xe6;" horiz-adv-x="978" d="M41 80q0 76 57.5 183.5t124.5 182.5q131 145 348 279q8 5 44 28t52.5 32t48.5 24t61.5 21t60.5 6q76 0 113.5 -40t37.5 -89q0 -48 -25 -96t-83.5 -106.5t-117.5 -107.5t-163 -129q0 -100 38 -145t89 -45q31 0 61 18.5t47 36.5t44 52q5 7 8 10q14 5 26 -2.5t15 -22.5 q-34 -59 -76.5 -102t-82 -62t-68 -27t-48.5 -8q-42 0 -75 17t-53 46t-31.5 56t-18.5 57q-84 -78 -175.5 -127t-145.5 -49q-43 0 -78 27t-35 82zM203 139q0 -27 12.5 -42t32.5 -15q86 0 215 129q-5 113 14.5 213.5t75.5 216.5l-4 4q-138 -81 -242 -243.5t-104 -262.5z M596 334q119 109 189.5 213t70.5 162q0 65 -65 65q-55 0 -101.5 -71.5t-70 -171.5t-23.5 -197z" />
<glyph unicode="&#xe7;" horiz-adv-x="692" d="M49 -379q0 17 14 33t37 16q22 0 50 -28q31 -31 43 -31q22 0 39.5 15t17.5 48q0 36 -30.5 70.5t-78.5 56.5v9l119 163q-6 -2 -14 -2q-66 0 -110 53t-44 164q0 113 67.5 265t192.5 264q131 119 266 119q73 0 112.5 -35t39.5 -86q0 -37 -22 -61t-42.5 -30t-35.5 -6 q-35 0 -41 37q0 4 -2 22t-3 23.5t-4 20t-8 20t-12 13.5t-18 11t-25 3q-36 0 -81.5 -34.5t-90.5 -102.5q-54 -80 -93.5 -195.5t-43.5 -228.5q-5 -133 88 -133q86 0 221 125q15 1 23.5 -9.5t3.5 -25.5q-46 -60 -110 -107.5t-134 -68.5l-66 -88q-22 -28 11 -54q75 -62 75 -133 q0 -64 -65.5 -110.5t-142.5 -46.5q-51 0 -77 18t-26 47z" />
<glyph unicode="&#xe8;" horiz-adv-x="708" d="M90 186q0 72 28 161.5t100.5 199.5t176.5 190q128 99 246 99q57 0 93 -39.5t36 -83.5q0 -57 -35.5 -107t-104 -91.5t-155.5 -75.5t-203 -66q-28 -70 -28 -183q0 -52 28 -84t70 -32q51 0 94.5 26t120.5 93q13 0 21.5 -10.5t5.5 -24.5q-152 -187 -328 -187q-58 0 -97 34 t-54 80.5t-15 100.5zM293 434q98 30 156.5 63t117.5 89q41 39 60.5 79t19.5 60q0 19 -11 33t-36 14q-65 0 -156 -98q-91 -97 -151 -240zM418 1243q0 25 35 47q39 27 63 27q25 0 39 -45l104 -322q0 -11 -13 -17.5t-23 -4.5l-177 258q-28 42 -28 57z" />
<glyph unicode="&#xe9;" horiz-adv-x="708" d="M90 186q0 72 28 161.5t100.5 199.5t176.5 190q128 99 246 99q57 0 93 -39.5t36 -83.5q0 -57 -35.5 -107t-104 -91.5t-155.5 -75.5t-203 -66q-28 -70 -28 -183q0 -52 28 -84t70 -32q51 0 94.5 26t120.5 93q13 0 21.5 -10.5t5.5 -24.5q-152 -187 -328 -187q-58 0 -97 34 t-54 80.5t-15 100.5zM293 434q98 30 156.5 63t117.5 89q41 39 60.5 79t19.5 60q0 19 -11 33t-36 14q-65 0 -156 -98q-91 -97 -151 -240zM535 961l192 292q26 44 49 41q28 0 58 -30t26 -54q0 -22 -35 -49l-258 -227q-11 0 -21.5 8.5t-10.5 18.5z" />
<glyph unicode="&#xea;" horiz-adv-x="708" d="M90 186q0 72 28 161.5t100.5 199.5t176.5 190q128 99 246 99q57 0 93 -39.5t36 -83.5q0 -57 -35.5 -107t-104 -91.5t-155.5 -75.5t-203 -66q-28 -70 -28 -183q0 -52 28 -84t70 -32q51 0 94.5 26t120.5 93q13 0 21.5 -10.5t5.5 -24.5q-152 -187 -328 -187q-58 0 -97 34 t-54 80.5t-15 100.5zM293 434q98 30 156.5 63t117.5 89q41 39 60.5 79t19.5 60q0 19 -11 33t-36 14q-65 0 -156 -98q-91 -97 -151 -240zM393 965l250 335q25 31 43 31q11 0 21 -10.5t14 -28.5l78 -331q-5 -11 -17.5 -17.5t-25.5 -3.5l-86 188q-12 27 -19 27q-11 0 -33 -22 l-190 -197q-12 -2 -23.5 7t-11.5 22z" />
<glyph unicode="&#xeb;" horiz-adv-x="708" d="M90 186q0 72 28 161.5t100.5 199.5t176.5 190q128 99 246 99q57 0 93 -39.5t36 -83.5q0 -57 -35.5 -107t-104 -91.5t-155.5 -75.5t-203 -66q-28 -70 -28 -183q0 -52 28 -84t70 -32q51 0 94.5 26t120.5 93q13 0 21.5 -10.5t5.5 -24.5q-152 -187 -328 -187q-58 0 -97 34 t-54 80.5t-15 100.5zM293 434q98 30 156.5 63t117.5 89q41 39 60.5 79t19.5 60q0 19 -11 33t-36 14q-65 0 -156 -98q-91 -97 -151 -240zM369 1118q0 48 29 79.5t69 31.5q35 0 55.5 -23.5t20.5 -54.5q0 -51 -29.5 -81t-69.5 -30q-35 0 -55 21t-20 57zM686 1118q0 48 30 79.5 t68 31.5q35 0 55.5 -23.5t20.5 -54.5q0 -51 -29.5 -81t-68.5 -30q-35 0 -55.5 21.5t-20.5 56.5z" />
<glyph unicode="&#xec;" horiz-adv-x="569" d="M106 45l261 621q17 39 -5 39q-8 0 -26.5 -9t-57 -35t-85.5 -65q-13 1 -21.5 12t-5.5 23q79 90 180 147.5t158 57.5q12 0 33 -21q19 -15 -13 -90l-243 -582q-7 -15 -6 -30t12 -15q27 0 94.5 47t118.5 105q30 -3 30 -35q-12 -23 -53.5 -63t-96 -81t-119.5 -70.5t-114 -29.5 q-16 0 -32 19q-22 25 -9 55zM319 1237q0 25 35 47q39 27 64 27t39 -45l94 -322q0 -11 -13 -17.5t-24 -4.5l-166 258q-29 43 -29 57z" />
<glyph unicode="&#xed;" horiz-adv-x="569" d="M106 45l261 621q17 39 -5 39q-8 0 -26.5 -9t-57 -35t-85.5 -65q-13 1 -21.5 12t-5.5 23q79 90 180 147.5t158 57.5q12 0 33 -21q19 -15 -13 -90l-243 -582q-7 -15 -6 -30t12 -15q27 0 94.5 47t118.5 105q30 -3 30 -35q-12 -23 -53.5 -63t-96 -81t-119.5 -70.5t-114 -29.5 q-16 0 -32 19q-22 25 -9 55zM444 958l193 293q26 44 49 41q27 0 57 -30t27 -54q0 -22 -35 -49l-258 -227q-11 0 -22 8t-11 18z" />
<glyph unicode="&#xee;" horiz-adv-x="569" d="M106 45l261 621q17 39 -5 39q-8 0 -26.5 -9t-57 -35t-85.5 -65q-13 1 -21.5 12t-5.5 23q79 90 180 147.5t158 57.5q12 0 33 -21q19 -15 -13 -90l-243 -582q-7 -15 -6 -30t12 -15q27 0 94.5 47t118.5 105q30 -3 30 -35q-12 -23 -53.5 -63t-96 -81t-119.5 -70.5t-114 -29.5 q-16 0 -32 19q-22 25 -9 55zM281 958l249 336q25 31 43 31q11 0 21 -10.5t14 -28.5l78 -332q-5 -11 -17.5 -17t-25.5 -3l-86 188q-12 27 -18 27q-10 0 -33 -23l-191 -196q-13 -2 -23.5 6.5t-10.5 21.5z" />
<glyph unicode="&#xef;" horiz-adv-x="569" d="M106 45l261 621q17 39 -5 39q-8 0 -26.5 -9t-57 -35t-85.5 -65q-13 1 -21.5 12t-5.5 23q79 90 180 147.5t158 57.5q12 0 33 -21q19 -15 -13 -90l-243 -582q-7 -15 -6 -30t12 -15q27 0 94.5 47t118.5 105q30 -3 30 -35q-12 -23 -53.5 -63t-96 -81t-119.5 -70.5t-114 -29.5 q-16 0 -32 19q-22 25 -9 55zM307 1118q0 48 29.5 79.5t69.5 31.5q35 0 55 -23.5t20 -54.5q0 -51 -29.5 -81t-68.5 -30q-35 0 -55.5 21.5t-20.5 56.5zM625 1118q0 48 30 79.5t68 31.5q35 0 55.5 -23.5t20.5 -54.5q0 -51 -29.5 -81t-69.5 -30q-35 0 -55 21t-20 57z" />
<glyph unicode="&#xf0;" horiz-adv-x="827" d="M96 244q6 102 66.5 232t156.5 226q137 134 273 134q46 0 94 -23q10 130 -41 268l-256 -129q-17 10 -22.5 30.5t2.5 35.5l254 129q-30 94 -91 175t-143 108q-6 23 19 34q217 -55 319 -268l260 131q20 -7 26.5 -26.5t-3.5 -38.5l-252 -127q78 -192 73 -394 q-5 -177 -66 -344.5t-173 -283.5q-138 -142 -291 -142q-101 0 -157.5 72t-47.5 201zM233 164q-3 -56 19 -93.5t65 -37.5q83 0 162 106q65 88 127.5 251.5t67.5 248.5q7 135 -74 135q-45 0 -82.5 -21t-79.5 -77q-83 -112 -141.5 -266.5t-63.5 -245.5z" />
<glyph unicode="&#xf1;" horiz-adv-x="1026" d="M123 25q212 571 237 645q17 47 -6 47q-67 0 -186 -103q-12 0 -19.5 9.5t-5.5 21.5q60 82 145.5 136.5t160.5 54.5q37 0 52 -24.5t1 -59.5l-140 -359l7 -4q78 119 160 215t175 164t166 68q115 0 115 -111q0 -46 -33 -143q-16 -45 -62 -154t-86.5 -202t-41.5 -97 q-16 -39 4 -39q27 0 88 43.5t104 95.5q33 5 33 -28q-57 -97 -161.5 -163.5t-190.5 -66.5q-14 0 -31.5 17t-17.5 35q0 19 49 135q16 36 77.5 190.5t88.5 212.5q43 99 43 150q0 15 -1.5 24t-9 17t-22.5 8q-37 0 -118 -69.5t-165 -174.5q-48 -59 -100 -142t-82.5 -138 t-104.5 -192q-17 -32 -26 -48q-14 -25 -37 -25q-16 0 -30.5 3t-25.5 16.5t-3 34.5zM518 979q6 29 27.5 80t42.5 71q39 44 102 44h103q59 0 84.5 12t58.5 59q7 5 18 3t15 -11q-9 -36 -30 -76t-42 -61q-33 -31 -92 -31h-100q-61 0 -94 -22t-62 -76q-7 -5 -17 -3t-14 11z" />
<glyph unicode="&#xf2;" horiz-adv-x="831" d="M96 244q7 104 66 234t157 224q139 134 283 134q106 0 160.5 -71t48.5 -187q-5 -100 -59 -229t-158 -236q-138 -142 -293 -142q-101 0 -157.5 72t-47.5 201zM233 164q-3 -56 19 -93.5t65 -37.5q83 0 162 106q65 88 126.5 251.5t64.5 248.5q4 135 -82 135q-78 0 -150 -98 q-83 -112 -141.5 -266.5t-63.5 -245.5zM440 1237q0 25 35 47q39 27 64 27t39 -45l100 -318q0 -11 -13 -17.5t-24 -4.5l-172 254q-29 43 -29 57z" />
<glyph unicode="&#xf3;" horiz-adv-x="831" d="M96 244q7 104 66 234t157 224q139 134 283 134q106 0 160.5 -71t48.5 -187q-5 -100 -59 -229t-158 -236q-138 -142 -293 -142q-101 0 -157.5 72t-47.5 201zM233 164q-3 -56 19 -93.5t65 -37.5q83 0 162 106q65 88 126.5 251.5t64.5 248.5q4 135 -82 135q-78 0 -150 -98 q-83 -112 -141.5 -266.5t-63.5 -245.5zM559 952l193 293q26 44 49 41q26 0 57 -31q30 -30 27 -53q0 -22 -35 -49l-258 -227q-11 0 -22 8t-11 18z" />
<glyph unicode="&#xf4;" horiz-adv-x="831" d="M96 244q7 104 66 234t157 224q139 134 283 134q106 0 160.5 -71t48.5 -187q-5 -100 -59 -229t-158 -236q-138 -142 -293 -142q-101 0 -157.5 72t-47.5 201zM233 164q-3 -56 19 -93.5t65 -37.5q83 0 162 106q65 88 126.5 251.5t64.5 248.5q4 135 -82 135q-78 0 -150 -98 q-83 -112 -141.5 -266.5t-63.5 -245.5zM401 965l250 335q25 31 43 31q11 0 21 -10.5t14 -28.5l78 -331q-5 -11 -17.5 -17.5t-25.5 -3.5l-80 199q-9 26 -18 26q-11 0 -33 -22l-197 -207q-12 -2 -23.5 7t-11.5 22z" />
<glyph unicode="&#xf5;" horiz-adv-x="831" d="M96 244q7 104 66 234t157 224q139 134 283 134q106 0 160.5 -71t48.5 -187q-5 -100 -59 -229t-158 -236q-138 -142 -293 -142q-101 0 -157.5 72t-47.5 201zM233 164q-3 -56 19 -93.5t65 -37.5q83 0 162 106q65 88 126.5 251.5t64.5 248.5q4 135 -82 135q-78 0 -150 -98 q-83 -112 -141.5 -266.5t-63.5 -245.5zM444 979q6 29 27.5 80t42.5 71q39 44 102 44h103q59 0 84.5 12t58.5 59q7 5 18 3t15 -11q-9 -36 -30 -76t-42 -61q-33 -31 -92 -31h-100q-61 0 -94 -22t-62 -76q-7 -5 -17 -3t-14 11z" />
<glyph unicode="&#xf6;" horiz-adv-x="831" d="M96 244q7 104 66 234t157 224q139 134 283 134q106 0 160.5 -71t48.5 -187q-5 -100 -59 -229t-158 -236q-138 -142 -293 -142q-101 0 -157.5 72t-47.5 201zM233 164q-3 -56 19 -93.5t65 -37.5q83 0 162 106q65 88 126.5 251.5t64.5 248.5q4 135 -82 135q-78 0 -150 -98 q-83 -112 -141.5 -266.5t-63.5 -245.5zM426 1120q0 48 29 79.5t69 31.5q35 0 55.5 -23.5t20.5 -54.5q0 -51 -29.5 -81t-68.5 -30q-35 0 -55.5 21.5t-20.5 56.5zM743 1120q0 48 30 79.5t69 31.5q35 0 55.5 -23.5t20.5 -54.5q0 -51 -29.5 -81t-69.5 -30q-35 0 -55.5 21.5 t-20.5 56.5z" />
<glyph unicode="&#xf7;" horiz-adv-x="1146" d="M242 371v100h788v-100h-788zM539 172q0 37 27 63.5t65 26.5q36 0 63 -27t27 -63q0 -38 -27 -65t-63 -27q-38 0 -65 27t-27 65zM539 672q0 37 27 63.5t65 26.5q36 0 63 -27t27 -63q0 -38 -27 -65t-63 -27q-38 0 -65 27t-27 65z" />
<glyph unicode="&#xf8;" horiz-adv-x="831" d="M96 244q6 103 66 232.5t157 225.5q139 134 285 134q48 0 82 -15l64 97q16 3 32.5 -5t20.5 -22l-66 -103q81 -64 74 -210q-3 -63 -23.5 -136t-70.5 -164.5t-121 -164.5q-138 -142 -293 -142q-42 0 -88 17l-61 -97q-15 -6 -32 4t-20 27l64 98q-82 72 -70 224zM219 164 q0 -29 8 -49l4 -4l412 645q-15 18 -55 18q-81 0 -160 -100q-88 -110 -148.5 -265.5t-60.5 -244.5zM260 55q25 -22 59 -22q93 0 175 106q68 89 130 253t62 247q0 23 -6 53h-8z" />
<glyph unicode="&#xf9;" horiz-adv-x="1015" d="M119 592q44 68 165.5 156t188.5 88q24 0 47 -19t15 -43l-230 -598q-26 -70 14 -70q47 0 220 170q53 52 100.5 112.5t88.5 126.5t66.5 111t60.5 112.5t44 84.5q32 6 63 -6t37 -31q-5 -14 -48.5 -126t-98 -256t-92.5 -252q-19 -52 8 -52t92 53.5t109 106.5q15 3 25.5 -4 t11.5 -25q-43 -79 -162 -169.5t-197 -90.5q-25 0 -42.5 24t-8.5 48l139 375l-4 2q-80 -101 -173 -199.5t-190 -174t-149 -75.5q-60 0 -74 53.5t15 120.5l188 498q21 59 0 59q-27 0 -88.5 -47.5t-105.5 -93.5q-15 -3 -26 7t-9 24zM524 1237q0 25 35 47q39 27 64 27t39 -45 l104 -320q0 -11 -13 -17.5t-24 -4.5l-176 256q-29 43 -29 57z" />
<glyph unicode="&#xfa;" horiz-adv-x="1015" d="M119 592q44 68 165.5 156t188.5 88q24 0 47 -19t15 -43l-230 -598q-26 -70 14 -70q47 0 220 170q53 52 100.5 112.5t88.5 126.5t66.5 111t60.5 112.5t44 84.5q32 6 63 -6t37 -31q-5 -14 -48.5 -126t-98 -256t-92.5 -252q-19 -52 8 -52t92 53.5t109 106.5q15 3 25.5 -4 t11.5 -25q-43 -79 -162 -169.5t-197 -90.5q-25 0 -42.5 24t-8.5 48l139 375l-4 2q-80 -101 -173 -199.5t-190 -174t-149 -75.5q-60 0 -74 53.5t15 120.5l188 498q21 59 0 59q-27 0 -88.5 -47.5t-105.5 -93.5q-15 -3 -26 7t-9 24zM659 952l193 293q26 44 49 41q26 0 57 -31 q30 -30 27 -53q0 -22 -35 -49l-258 -227q-11 0 -22 8t-11 18z" />
<glyph unicode="&#xfb;" horiz-adv-x="1015" d="M119 592q44 68 165.5 156t188.5 88q24 0 47 -19t15 -43l-230 -598q-26 -70 14 -70q47 0 220 170q53 52 100.5 112.5t88.5 126.5t66.5 111t60.5 112.5t44 84.5q32 6 63 -6t37 -31q-5 -14 -48.5 -126t-98 -256t-92.5 -252q-19 -52 8 -52t92 53.5t109 106.5q15 3 25.5 -4 t11.5 -25q-43 -79 -162 -169.5t-197 -90.5q-25 0 -42.5 24t-8.5 48l139 375l-4 2q-80 -101 -173 -199.5t-190 -174t-149 -75.5q-60 0 -74 53.5t15 120.5l188 498q21 59 0 59q-27 0 -88.5 -47.5t-105.5 -93.5q-15 -3 -26 7t-9 24zM516 971l250 336q24 30 43 30q11 0 21 -10.5 t14 -28.5l78 -331q-5 -11 -17.5 -17.5t-25.5 -3.5l-86 189q-11 26 -19 26q-11 0 -33 -22l-190 -197q-12 -2 -23.5 7t-11.5 22z" />
<glyph unicode="&#xfc;" horiz-adv-x="1015" d="M119 592q44 68 165.5 156t188.5 88q24 0 47 -19t15 -43l-230 -598q-26 -70 14 -70q47 0 220 170q53 52 100.5 112.5t88.5 126.5t66.5 111t60.5 112.5t44 84.5q32 6 63 -6t37 -31q-5 -14 -48.5 -126t-98 -256t-92.5 -252q-19 -52 8 -52t92 53.5t109 106.5q15 3 25.5 -4 t11.5 -25q-43 -79 -162 -169.5t-197 -90.5q-25 0 -42.5 24t-8.5 48l139 375l-4 2q-80 -101 -173 -199.5t-190 -174t-149 -75.5q-60 0 -74 53.5t15 120.5l188 498q21 59 0 59q-27 0 -88.5 -47.5t-105.5 -93.5q-15 -3 -26 7t-9 24zM500 1118q0 48 29 79.5t69 31.5 q35 0 55.5 -23.5t20.5 -54.5q0 -51 -29.5 -81t-69.5 -30q-35 0 -55 21t-20 57zM817 1118q0 48 30 79.5t68 31.5q35 0 55.5 -23.5t20.5 -54.5q0 -51 -29.5 -81t-68.5 -30q-35 0 -55.5 21.5t-20.5 56.5z" />
<glyph unicode="&#xfd;" horiz-adv-x="749" d="M-205 -457q0 38 24 63t58 25q33 0 55 -32q22 -37 58 -37q44 0 112 57q44 37 99 125.5t82 181.5q21 76 32 204t9 263q-1 82 -8 143t-18 96t-24 51.5t-28 16.5q-19 0 -40.5 -23.5t-36.5 -50t-42 -81.5q-31 -8 -39 26q35 110 99 187.5t135 77.5q114 0 124 -349 q4 -252 -30 -450h8q96 142 172 352q29 80 51.5 204t24.5 175q4 63 49 63q28 0 57 -18q19 -13 19 -41q2 -60 -58 -241.5t-180 -383.5q-6 -10 -32 -54.5t-33 -56t-30 -50t-33.5 -54t-33 -50t-39 -55.5t-39.5 -52t-47 -60t-51 -59q-181 -207 -319 -207q-48 0 -77.5 27t-29.5 67 zM498 952l192 293q26 44 49 41q27 0 58 -31q29 -29 26 -53q0 -22 -35 -49l-258 -227q-11 0 -21.5 8t-10.5 18z" />
<glyph unicode="&#xfe;" horiz-adv-x="917" d="M-218 -528.5q0 13.5 11 22.5l45 8q17 3 31.5 7.5t25.5 8t21 11t16.5 11t14 15t11 15.5t9.5 18.5t8 19t8.5 23t8.5 23.5l381 1069q-85 -23 -207 -84q-12 2 -18.5 14t-2.5 25q99 70 254 115l101 280q19 52 27 85.5t6.5 52t-8 26.5t-19.5 14l-37 17q-7 6 -7 17t7 15 q42 16 119 36.5t139 25.5l10 -12q-12 -33 -25.5 -69t-43.5 -117t-62 -167l-71 -194q5 0 30 2t47 2q32 0 65.5 -5.5t73 -21t69.5 -40.5t50.5 -68t20.5 -99q0 -258 -270 -485q-58 -49 -132.5 -78t-109 -34t-51.5 -5t-64 13q-24 -6 -33 -37l-84 -242q-29 -83 -35 -118t5 -49 t47 -19l84 -13q8 -10 6.5 -24.5t-14.5 -20.5q-36 0 -447 -12q-11 9 -11 22.5zM305 143q-12 -34 2 -55q10 -17 31.5 -32t44.5 -15q13 0 35.5 7.5t55 23.5t70 51.5t68.5 83.5q121 188 121 385q0 73 -46 113t-116 40q-25 0 -53 -4z" />
<glyph unicode="&#xff;" horiz-adv-x="749" d="M-205 -457q0 38 24 63t58 25q33 0 55 -32q22 -37 58 -37q44 0 112 57q44 37 99 125.5t82 181.5q21 76 32 204t9 263q-1 82 -8 143t-18 96t-24 51.5t-28 16.5q-19 0 -40.5 -23.5t-36.5 -50t-42 -81.5q-31 -8 -39 26q35 110 99 187.5t135 77.5q114 0 124 -349 q4 -252 -30 -450h8q96 142 172 352q29 80 51.5 204t24.5 175q4 63 49 63q28 0 57 -18q19 -13 19 -41q2 -60 -58 -241.5t-180 -383.5q-6 -10 -32 -54.5t-33 -56t-30 -50t-33.5 -54t-33 -50t-39 -55.5t-39.5 -52t-47 -60t-51 -59q-181 -207 -319 -207q-48 0 -77.5 27t-29.5 67 zM324 1118q0 48 29 79.5t69 31.5q35 0 55.5 -23.5t20.5 -54.5q0 -51 -29.5 -81t-69.5 -30q-35 0 -55 21t-20 57zM641 1118q0 48 30 79.5t68 31.5q35 0 55.5 -23.5t20.5 -54.5q0 -51 -29.5 -81t-68.5 -30q-35 0 -55.5 21.5t-20.5 56.5z" />
<glyph unicode="&#x152;" horiz-adv-x="2004" d="M215 571q9 174 105.5 341.5t257.5 275.5q122 81 271 126.5t351 45.5q80 0 207 -4t184 -4h303q228 0 289 6q-31 -79 -84 -273q-6 -12 -26 -11t-25 13q6 53 6.5 89t-17.5 59t-61 35q-71 18 -217 18h-123q-38 0 -50.5 -11.5t-26.5 -57.5l-132 -420q-14 -43 -9.5 -51.5 t46.5 -8.5h103q147 0 197 17.5t85 83.5l33 61q6 11 27 9.5t24 -13.5q-36 -90 -69 -199q-33 -102 -54 -198q-9 -12 -27 -11t-24 13v57q0 27 -4 45t-16.5 30.5t-25 19t-41.5 10t-53 4t-71 0.5h-102q-43 0 -55 -8.5t-25 -51.5l-84 -276q-16 -52 -23.5 -79.5t-14 -59.5t-5.5 -52 t8 -35q11 -23 57.5 -33t170.5 -10q77 0 120.5 3t91.5 14t81 34.5t68.5 62t74.5 99.5q12 8 26.5 4.5t20.5 -16.5q-16 -54 -60.5 -143.5t-80.5 -126.5q-35 1 -112 2t-116 2q-40 0 -121 1t-120 1h-125q-41 0 -111 -4.5t-92 -5.5q-66 -4 -193 -4q-302 0 -464 157.5t-148 427.5z M395 553q-13 -241 114.5 -372.5t342.5 -131.5q35 0 57.5 2t53 11t51 26t41.5 49t35 78l296 940q20 63 15 85.5t-41 33.5q-89 24 -203 24q-147 0 -272 -46.5t-211 -122t-148.5 -173.5t-93.5 -200t-37 -203z" />
<glyph unicode="&#x153;" horiz-adv-x="1183" d="M96 223q0 115 58 249t157 230q137 134 279 134q77 0 124.5 -49.5t59.5 -135.5q72 77 166.5 131t179.5 54q55 0 90 -39.5t35 -83.5q0 -57 -35.5 -107t-104.5 -91.5t-158 -75.5t-208 -66q-37 -76 -37 -176q0 -56 31.5 -89.5t83.5 -33.5q51 0 94.5 26t120.5 93 q13 0 21.5 -10.5t5.5 -24.5q-152 -187 -328 -187q-62 0 -100.5 40t-52.5 114q-143 -154 -279 -154q-92 0 -147.5 69t-55.5 183zM236 164q-2 -57 19.5 -94t63.5 -37q82 0 158 106q64 88 121.5 250t60.5 250q4 135 -81 135q-76 0 -146 -98q-81 -112 -137 -267t-59 -245z M760 432q104 31 163.5 64.5t118.5 89.5q41 39 60.5 79t19.5 60q0 18 -10.5 32.5t-34.5 14.5q-57 0 -153 -98q-96 -99 -164 -242z" />
<glyph unicode="&#x178;" horiz-adv-x="1155" d="M251.5 19.5q-0.5 18.5 10.5 25.5l74 6q26 2 42.5 6t33 15.5t27 25t24.5 44.5t25.5 63t31.5 90l41 121q28 81 31 123t-17 139l-102 444q-23 101 -43.5 134t-73.5 42l-51 9q-9 11 -6 28t12 23q114 -6 217 -6q121 0 220 6q9 -8 9.5 -25t-9.5 -26l-60 -9q-58 -8 -73.5 -30 t-2.5 -82l105 -481q8 -38 19 -39t42 36l252 304q197 240 197 258q0 24 -60 34l-51 9q-11 9 -9.5 26.5t13.5 24.5q120 -6 213 -6q83 0 185 6q10 -6 10 -24t-10 -27l-43 -9q-83 -17 -115 -47q-33 -30 -94.5 -94t-106.5 -117l-233 -274q-110 -128 -142 -179.5t-69 -168.5 l-39 -123q-18 -56 -27.5 -89t-14.5 -63t-2.5 -44.5t13 -26t26.5 -15.5t44 -6l73 -6q10 -8 7.5 -27t-13.5 -24q-172 6 -274 6q-106 0 -244 -6q-12 7 -12.5 25.5zM705 1520q0 46 29 77t67 31q34 0 55 -23.5t21 -54.5q0 -48 -30 -77t-69 -29q-35 0 -54 21t-19 55zM1061 1520 q0 46 29 77t67 31q34 0 55 -23.5t21 -54.5q0 -49 -29 -77.5t-69 -28.5q-35 0 -54.5 21t-19.5 55z" />
<glyph unicode="&#x2c6;" horiz-adv-x="737" d="M471 965l250 335q25 31 43 31q11 0 21 -10.5t14 -28.5l78 -331q-5 -11 -17.5 -17.5t-25.5 -3.5l-86 188q-12 27 -19 27q-11 0 -33 -22l-190 -197q-12 -2 -23.5 7t-11.5 22z" />
<glyph unicode="&#x2dc;" horiz-adv-x="737" d="M391 999q6 30 27.5 81.5t42.5 70.5q38 43 102 43h103q59 0 84.5 12.5t58.5 59.5q7 5 18 2.5t15 -11.5q-9 -36 -30 -76t-42 -61q-32 -30 -92 -30h-100q-60 0 -93.5 -22.5t-62.5 -76.5q-7 -5 -17 -3t-14 11z" />
<glyph unicode="&#x2000;" horiz-adv-x="889" />
<glyph unicode="&#x2001;" horiz-adv-x="1778" />
<glyph unicode="&#x2002;" horiz-adv-x="889" />
<glyph unicode="&#x2003;" horiz-adv-x="1778" />
<glyph unicode="&#x2004;" horiz-adv-x="592" />
<glyph unicode="&#x2005;" horiz-adv-x="444" />
<glyph unicode="&#x2006;" horiz-adv-x="296" />
<glyph unicode="&#x2007;" horiz-adv-x="296" />
<glyph unicode="&#x2008;" horiz-adv-x="222" />
<glyph unicode="&#x2009;" horiz-adv-x="355" />
<glyph unicode="&#x200a;" horiz-adv-x="98" />
<glyph unicode="&#x2010;" horiz-adv-x="655" d="M111.5 413q5.5 39 25.5 58l498 45q15 -20 9.5 -59t-26.5 -58l-497 -45q-15 20 -9.5 59z" />
<glyph unicode="&#x2011;" horiz-adv-x="655" d="M111.5 413q5.5 39 25.5 58l498 45q15 -20 9.5 -59t-26.5 -58l-497 -45q-15 20 -9.5 59z" />
<glyph unicode="&#x2012;" horiz-adv-x="655" d="M111.5 413q5.5 39 25.5 58l498 45q15 -20 9.5 -59t-26.5 -58l-497 -45q-15 20 -9.5 59z" />
<glyph unicode="&#x2013;" d="M0 371l33 100h1057l-33 -100h-1057z" />
<glyph unicode="&#x2014;" horiz-adv-x="2048" d="M0 371l33 100h2081l-33 -100h-2081z" />
<glyph unicode="&#x2018;" horiz-adv-x="425" d="M332 1139q0 51 28 99t73.5 83.5t96.5 61t103 40.5q9 -5 12.5 -16.5t-0.5 -22.5q-182 -85 -182 -206q0 -56 65 -78q31 -12 31 -43q0 -32 -26 -54t-60 -22q-66 0 -103.5 48.5t-37.5 109.5z" />
<glyph unicode="&#x2019;" horiz-adv-x="425" d="M345.5 979q-3.5 11 0.5 22q182 85 182 207q0 56 -65 78q-31 12 -31 43q0 32 26 54t60 22q66 0 103.5 -48.5t37.5 -109.5q0 -51 -28 -99t-73.5 -83.5t-96.5 -61t-103 -40.5q-9 5 -12.5 16z" />
<glyph unicode="&#x201a;" horiz-adv-x="425" d="M-31 -170q183 86 183 207q0 55 -66 78q-31 12 -31 43q0 32 25.5 53.5t60.5 21.5q66 0 104 -48t38 -109q0 -67 -49.5 -128.5t-115 -99t-136.5 -57.5q-9 5 -13 16.5t0 22.5z" />
<glyph unicode="&#x201c;" horiz-adv-x="778" d="M344 1139q0 51 28 99t73.5 83.5t96.5 61t103 40.5q9 -5 12.5 -16.5t-0.5 -22.5q-182 -85 -182 -206q0 -55 66 -78q30 -11 30 -43t-26 -54t-60 -22q-66 0 -103.5 48.5t-37.5 109.5zM676 1139q0 51 28 99t73.5 83.5t96.5 61t103 40.5q9 -5 12.5 -16.5t-0.5 -22.5 q-182 -85 -182 -206q0 -56 65 -78q31 -12 31 -43q0 -32 -26 -54t-60 -22q-66 0 -103.5 48.5t-37.5 109.5z" />
<glyph unicode="&#x201d;" horiz-adv-x="778" d="M354 979q-4 11 0 22q183 86 183 207q0 55 -66 78q-31 12 -31 43q0 32 26 54t60 22q66 0 104 -48.5t38 -109.5q0 -51 -28 -99t-73.5 -83.5t-96.5 -61t-103 -40.5q-9 5 -13 16zM685.5 979q-3.5 11 0.5 22q182 85 182 207q0 56 -65 78q-31 12 -31 43q0 32 26 54t60 22 q66 0 103.5 -48.5t37.5 -109.5q0 -51 -28 -99t-73.5 -83.5t-96.5 -61t-103 -40.5q-9 5 -12.5 16z" />
<glyph unicode="&#x201e;" horiz-adv-x="778" d="M-25 -170q183 86 183 207q0 55 -66 78q-31 12 -31 43q0 32 25.5 53.5t60.5 21.5q66 0 104 -48t38 -109q0 -67 -49.5 -128.5t-115 -99t-136.5 -57.5q-9 5 -13 16.5t0 22.5zM306.5 -192.5q-3.5 11.5 0.5 22.5q182 85 182 207q0 56 -65 78q-31 12 -31 43q0 32 25.5 53.5 t60.5 21.5q66 0 104 -48t38 -109q0 -51 -28.5 -99t-74 -83.5t-96.5 -61.5t-103 -41q-9 5 -12.5 16.5z" />
<glyph unicode="&#x2022;" horiz-adv-x="798" d="M225 688q0 120 83 202.5t202 82.5t202 -82.5t83 -202.5q0 -119 -83 -200.5t-202 -81.5t-202 81.5t-83 200.5z" />
<glyph unicode="&#x2026;" horiz-adv-x="2048" d="M170 68q0 54 35.5 90.5t81.5 36.5q42 0 66 -27.5t24 -65.5q0 -59 -35 -95t-82 -36q-42 0 -66 26t-24 71zM852 68q0 54 35.5 90.5t81.5 36.5q42 0 66 -27.5t24 -65.5q0 -59 -35 -95t-82 -36q-42 0 -66 26t-24 71zM1534 68q0 54 35.5 90.5t81.5 36.5q42 0 66 -27.5 t24 -65.5q0 -59 -35 -95t-82 -36q-42 0 -66 26t-24 71z" />
<glyph unicode="&#x202f;" horiz-adv-x="355" />
<glyph unicode="&#x2039;" horiz-adv-x="532" d="M152 421q2 12 22 32q53 53 157.5 155t153.5 152q10 1 18.5 -7t10.5 -20l-205 -287q-17 -23 -10 -49l82 -297q-4 -11 -16.5 -17t-22.5 -3q-103 185 -180 309q-12 20 -10 32z" />
<glyph unicode="&#x203a;" horiz-adv-x="532" d="M104 106l205 287q17 23 10 49l-81 297q4 12 16.5 18t21.5 3q94 -168 181 -309q12 -20 9.5 -32t-22.5 -32q-53 -53 -157.5 -155t-153.5 -152q-10 -1 -18.5 6.5t-10.5 19.5z" />
<glyph unicode="&#x205f;" horiz-adv-x="444" />
<glyph unicode="&#x20ac;" d="M154.5 568.5q5.5 23.5 23.5 31.5h84q2 18 23 115h-95q-7 17 -1 40t24 31h92q52 152 170 285q215 240 488 240q134 0 237 -62q-50 -138 -74 -260q-5 -10 -26.5 -9.5t-24.5 11.5q42 252 -137 252q-193 0 -334 -196q-84 -116 -125 -261h506q8 -8 1.5 -35.5t-23.5 -35.5h-500 q-18 -71 -21 -115h471q8 -8 0.5 -36t-24.5 -36h-457q-10 -72 -10 -129q0 -169 54.5 -264.5t166.5 -95.5q77 0 143 60.5t136 185.5q10 5 25.5 0.5t19.5 -15.5q-39 -138 -88 -247q-19 -2 -65 -15.5t-56 -15.5q-81 -21 -119 -21q-183 0 -289 121.5t-106 343.5q0 38 8 92h-96 q-7 17 -1.5 40.5z" />
<glyph unicode="&#x2122;" horiz-adv-x="1126" d="M307 1251q8 44 25 123h18q12 -15 21 -18.5t37 -3.5h235q17 0 22.5 0.5t14.5 5.5t20 16h17q-14 -58 -10 -129q-3 -4 -10.5 -4.5t-10.5 2.5q-7 38 -20.5 53t-55.5 15h-43q-10 0 -12 -3.5t-2 -19.5v-207q0 -45 5.5 -60.5t27.5 -21.5l30 -4q4 -5 3.5 -14.5t-5.5 -11.5 q-41 2 -98 2q-73 0 -106 -2q-14 7 -2 26l28 4q22 3 28.5 23t6.5 65v201q0 11 -1 15t-5 6t-14 2h-35q-71 0 -88 -66q-5 -2 -12.5 0t-8.5 6zM754 995l10 2q19 2 32.5 13.5t14.5 29.5q16 160 16 244q0 35 -45 41l-14 2q-3 5 -2 15t4 12q20 -2 64 -2q55 0 86 2q0 -18 45 -105 l51 -96q31 -55 35 -57q5 5 34 57l50 88q33 59 47 113q31 -2 61 -2q51 0 74 2q9 -1 9.5 -12.5t-7.5 -14.5l-19 -2q-22 -3 -28 -12.5t-6 -32.5q0 -128 6 -223q1 -32 5.5 -41.5t18.5 -14.5l29 -6q5 -3 5 -13t-5 -13q-27 2 -94 2q-57 0 -84 -2q-5 3 -5.5 13t5.5 13l18 6 q22 7 26.5 16t4.5 42l-4 182q0 19 -2 21q-3 0 -35 -62l-51 -100q-2 -4 -16.5 -32.5t-28 -57.5t-17.5 -41q-7 -3 -14 -3.5t-8 1.5q-9 25 -53 116l-52 103q-38 84 -43 86q-3 -7 -6 -96q-2 -35 -2 -125q0 -30 7.5 -40.5t31.5 -13.5l17 -2q7 -11 0 -26q-18 2 -89 2q-44 0 -75 -2 q-11 7 -2 26z" />
<glyph unicode="&#xe000;" horiz-adv-x="839" d="M0 0v840h840v-840h-840z" />
<glyph unicode="&#xfb01;" horiz-adv-x="1030" d="M-297 -446q0 45 39 73q14 12 25 12t18 -7t16 -23q21 -34 56 -55t67 -21q76 0 129 170q55 180 140 526t131 502h-170q-15 15 -10.5 39.5t24.5 36.5h176q103 347 240 491q157 166 340 166q99 0 161 -44.5t62 -116.5q0 -42 -31 -65.5t-65 -23.5q-60 0 -60 52q0 137 -104 137 q-105 0 -193 -117q-44 -60 -84.5 -150.5t-60.5 -150.5t-57 -178h194q62 0 172 14q88 15 100 15q21 0 28.5 -15.5t4 -39.5t-15.5 -54l-234 -584q-7 -15 -5.5 -30t12.5 -15q27 0 94.5 47t118.5 105q30 -3 30 -35q-12 -23 -53.5 -63t-96 -81t-119.5 -70.5t-114 -29.5 q-17 0 -33 19q-18 21 -6 55l242 623q16 37 5 50t-64 13h-281q-7 -20 -24 -81.5t-23 -80.5q-22 -77 -87.5 -314.5t-105.5 -365.5q-39 -130 -82.5 -216.5t-78.5 -118.5q-20 -20 -45 -39.5t-79.5 -42.5t-109.5 -23q-63 0 -98 35.5t-35 69.5z" />
<glyph unicode="&#xfb02;" horiz-adv-x="1001" d="M-297 -446q0 45 39 73q14 12 25 12t18 -7t16 -23q21 -34 56 -55t67 -21q76 0 129 170q55 180 140 526t131 502h-168q-15 13 -10.5 38t24.5 38h174q49 169 103.5 288t132.5 208q144 161 321 161q98 0 166 -65q76 50 121 65l14 -12q-32 -82 -125 -352l-327 -967 q-8 -24 -10 -38.5t3 -21.5t17 -7q52 0 235 206q33 3 33 -28q-23 -43 -55 -86.5t-76.5 -87.5t-103 -71.5t-119.5 -27.5q-78 0 -78 62q0 40 45 174l178 524h-348q-7 -20 -24 -81.5t-23 -80.5q-22 -77 -87.5 -314.5t-105.5 -365.5q-39 -130 -82.5 -216.5t-78.5 -118.5 q-20 -20 -45 -39.5t-79.5 -42.5t-109.5 -23q-63 0 -98 35.5t-35 69.5zM492 807h352l145 424q25 71 -10 121.5t-102 50.5q-102 0 -181 -107q-102 -140 -204 -489z" />
</font>
</defs>
</svg>
